<svg width="336" height="276" viewBox="0 0 336 276" fill="none" xmlns="http://www.w3.org/2000/svg">
<g filter="url(#filter0_d_13_1656)">
<rect x="8" width="320" height="260" rx="5" fill="white"/>
<g clip-path="url(#clip0_13_1656)">
<path opacity="0.1" d="M249.336 53.6001C247.607 50.2399 245.339 47.1855 242.623 44.558L149.498 43.7823L226.171 34.6789C221.154 33.0002 215.905 32.12 210.615 32.0702C203.234 27.031 193.747 24.0075 183.399 24.0075C174.114 24.0075 165.529 26.447 158.53 30.5861C152.581 27.9954 145.801 26.5263 138.596 26.5263C117.905 26.5263 100.664 38.6413 96.7957 54.7082L249.336 53.6001Z" fill="#00BAFC"/>
<path opacity="0.1" d="M252.61 67.0748C252.604 62.6724 251.612 58.3272 249.708 54.3578L88.3108 68.6801C86.6726 71.1775 85.3993 73.896 84.5295 76.7533L134.509 83.0519L83.3899 87.6433C84.9279 105.832 103.371 120.193 125.902 120.193C137.242 120.193 147.547 116.554 155.183 110.62C162.843 116.667 173.246 120.385 184.709 120.385C201.717 120.385 216.397 112.198 223.233 100.362C236.947 96.6808 247.601 87.4411 251.247 75.8817L188.041 67.5944H252.61C252.61 67.4207 252.61 67.2485 252.61 67.0748Z" fill="#00BAFC"/>
<path opacity="0.1" d="M158.263 153.999C182.246 153.999 201.688 153.131 201.688 152.061C201.688 150.991 182.246 150.123 158.263 150.123C134.28 150.123 114.838 150.991 114.838 152.061C114.838 153.131 134.28 153.999 158.263 153.999Z" fill="#00BAFC"/>
<path d="M184.037 148.652V149.823H149.407V148.872C151.519 148.09 153.351 146.699 154.672 144.874C155.993 143.05 156.742 140.875 156.826 138.624C156.91 136.373 156.324 134.148 155.143 132.231C153.962 130.313 152.238 128.789 150.19 127.852H183.802C181.8 128.768 180.107 130.246 178.928 132.106C177.749 133.965 177.135 136.127 177.159 138.328C177.184 140.53 177.847 142.677 179.068 144.51C180.289 146.342 182.015 147.781 184.037 148.652Z" fill="#C8CAD7"/>
<path opacity="0.1" d="M183.802 127.852C182.257 128.561 180.891 129.607 179.802 130.912C178.714 132.218 177.932 133.751 177.512 135.398H156.481C156.062 133.751 155.279 132.218 154.191 130.913C153.102 129.607 151.736 128.561 150.191 127.852H183.802Z" fill="black"/>
<path d="M109.746 121.886V128.46C109.746 132.09 112.403 135.032 115.681 135.032H217.576C220.854 135.032 223.51 132.09 223.51 128.46V121.886H109.746Z" fill="#C8CAD7"/>
<path opacity="0.1" d="M184.037 148.652V149.823H149.407V148.872C150.356 148.519 151.254 148.041 152.077 147.45H181.914C182.576 147.925 183.288 148.328 184.037 148.652Z" fill="black"/>
<path d="M194.058 147.815H139.385C138.6 147.815 137.963 148.452 137.963 149.238V149.862C137.963 150.648 138.6 151.285 139.385 151.285H194.058C194.844 151.285 195.481 150.648 195.481 149.862V149.238C195.481 148.452 194.844 147.815 194.058 147.815Z" fill="#C8CAD7"/>
<path d="M223.51 49.8503C223.508 48.2777 222.882 46.7703 221.769 45.6592C220.656 44.5481 219.148 43.9242 217.576 43.9246H115.686C114.112 43.923 112.603 44.5463 111.489 45.6576C110.375 46.7688 109.748 48.2769 109.746 49.8503V123.165H223.51V49.8503Z" fill="#474157"/>
<path d="M220.413 52.4979V115.494C220.414 115.878 220.338 116.258 220.191 116.613C220.045 116.967 219.829 117.289 219.558 117.561C219.287 117.832 218.965 118.047 218.61 118.194C218.255 118.341 217.875 118.416 217.492 118.416H115.777C115.393 118.416 115.013 118.341 114.659 118.194C114.304 118.047 113.982 117.832 113.71 117.561C113.439 117.289 113.224 116.967 113.077 116.613C112.93 116.258 112.855 115.878 112.855 115.494V52.4979C112.855 51.723 113.163 50.9799 113.711 50.432C114.259 49.8841 115.002 49.5762 115.777 49.5762H217.484C217.868 49.5753 218.249 49.6501 218.605 49.7965C218.96 49.9429 219.283 50.1579 219.555 50.4293C219.827 50.7007 220.043 51.0231 220.19 51.3781C220.337 51.7331 220.413 52.1136 220.413 52.4979Z" fill="#4C4C78"/>
<path d="M166.63 48.1161C167.387 48.1161 168 47.5027 168 46.7459C168 45.9891 167.387 45.3757 166.63 45.3757C165.873 45.3757 165.26 45.9891 165.26 46.7459C165.26 47.5027 165.873 48.1161 166.63 48.1161Z" fill="white"/>
<path d="M166.63 132.112C168.496 132.112 170.008 130.6 170.008 128.734C170.008 126.868 168.496 125.355 166.63 125.355C164.764 125.355 163.251 126.868 163.251 128.734C163.251 130.6 164.764 132.112 166.63 132.112Z" fill="white"/>
<path d="M135.583 51.0378V118.416H115.777C115.393 118.416 115.013 118.341 114.659 118.194C114.304 118.047 113.982 117.832 113.71 117.561C113.439 117.289 113.224 116.967 113.077 116.613C112.93 116.258 112.855 115.878 112.855 115.494V52.4979L112.962 52.1011L113.246 51.0378H135.583Z" fill="white"/>
<path d="M138.124 52.101V58.166H112.855V52.4979L112.962 52.101H138.124Z" fill="#4C4C78"/>
<path d="M220.413 52.4979H112.855C112.855 52.1142 112.931 51.7344 113.078 51.38C113.224 51.0256 113.44 50.7036 113.711 50.4325C113.982 50.1613 114.304 49.9462 114.659 49.7995C115.013 49.6529 115.393 49.5775 115.777 49.5777H217.484C217.868 49.5765 218.249 49.6512 218.604 49.7974C218.96 49.9436 219.283 50.1585 219.555 50.4298C219.827 50.7011 220.043 51.0234 220.19 51.3783C220.337 51.7332 220.413 52.1136 220.413 52.4979Z" fill="#C8CAD7"/>
<path d="M115.777 51.7686C116.18 51.7686 116.508 51.4414 116.508 51.0378C116.508 50.6342 116.18 50.307 115.777 50.307C115.373 50.307 115.046 50.6342 115.046 51.0378C115.046 51.4414 115.373 51.7686 115.777 51.7686Z" fill="#EDEDF4"/>
<path d="M117.968 51.7686C118.371 51.7686 118.699 51.4414 118.699 51.0378C118.699 50.6342 118.371 50.307 117.968 50.307C117.564 50.307 117.237 50.6342 117.237 51.0378C117.237 51.4414 117.564 51.7686 117.968 51.7686Z" fill="#EDEDF4"/>
<path d="M120.159 51.7686C120.562 51.7686 120.889 51.4414 120.889 51.0378C120.889 50.6342 120.562 50.307 120.159 50.307C119.755 50.307 119.428 50.6342 119.428 51.0378C119.428 51.4414 119.755 51.7686 120.159 51.7686Z" fill="#EDEDF4"/>
<path d="M131.806 54.7711H116.632V56.1683H131.806V54.7711Z" fill="#00BAFC"/>
<path opacity="0.5" d="M131.806 61.5848H116.632V62.982H131.806V61.5848Z" fill="#00BAFC"/>
<path opacity="0.5" d="M131.806 66.4023H116.632V67.7995H131.806V66.4023Z" fill="#00BAFC"/>
<path opacity="0.5" d="M131.806 71.2198H116.632V72.617H131.806V71.2198Z" fill="#00BAFC"/>
<path opacity="0.5" d="M131.806 76.0359H116.632V77.4331H131.806V76.0359Z" fill="#00BAFC"/>
<path opacity="0.5" d="M131.806 80.8535H116.632V82.2506H131.806V80.8535Z" fill="#00BAFC"/>
<path opacity="0.5" d="M131.806 85.671H116.632V87.0681H131.806V85.671Z" fill="#00BAFC"/>
<path opacity="0.5" d="M131.806 90.4871H116.632V91.8843H131.806V90.4871Z" fill="#00BAFC"/>
<path opacity="0.5" d="M215.247 59.9091H148.007V60.1337H215.247V59.9091Z" fill="#DCE0ED"/>
<path opacity="0.5" d="M215.247 65.125H148.007V65.3496H215.247V65.125Z" fill="#DCE0ED"/>
<path opacity="0.5" d="M215.247 70.3424H148.007V70.567H215.247V70.3424Z" fill="#DCE0ED"/>
<path opacity="0.5" d="M215.247 75.5582H148.007V75.7829H215.247V75.5582Z" fill="#DCE0ED"/>
<path opacity="0.5" d="M215.247 80.7741H148.007V80.9987H215.247V80.7741Z" fill="#DCE0ED"/>
<path opacity="0.5" d="M215.248 80.9972H147.924V70.7392L154.099 73.7821L160.489 74.6477L166.095 72.957L172.86 67.7112L176.262 65.7464L178.749 65.2672L181.129 65.3945L185.043 67.3278L190.363 70.7167L194.538 71.2543L197.849 70.1132L204.865 64.3657L208.447 63.0883L212.195 63.6679L215.248 65.4304V80.9972Z" fill="#00BAFC"/>
<path d="M159.659 74.6508C153.597 74.6508 147.993 70.9429 147.924 70.895L148.091 70.6464C148.177 70.7048 156.8 76.4103 164.127 73.5516C166.802 72.5108 168.701 70.889 170.546 69.3226C172.467 67.6858 174.282 66.1388 176.755 65.4679C179.6 64.6997 182.692 65.3961 185.048 67.3309C187.061 68.9856 191.071 71.6437 195.307 70.8485C197.467 70.4442 199.288 68.8658 201.215 67.1961C204.905 63.9914 208.733 60.6834 215.335 65.4335L215.16 65.6761C208.743 61.0652 205.013 64.2969 201.407 67.4222C199.448 69.1204 197.597 70.7168 195.358 71.1436C191.001 71.9597 186.906 69.2507 184.853 67.563C182.572 65.6881 179.573 65.0172 176.829 65.7585C174.42 66.4114 172.636 67.9359 170.736 69.5502C168.878 71.1331 166.955 72.7714 164.237 73.8316C162.775 74.3872 161.223 74.665 159.659 74.6508Z" fill="#00BAFC"/>
<path d="M180.362 66.904C181.283 66.904 182.029 66.1578 182.029 65.2373C182.029 64.3168 181.283 63.5706 180.362 63.5706C179.442 63.5706 178.695 64.3168 178.695 65.2373C178.695 66.1578 179.442 66.904 180.362 66.904Z" fill="#00BAFC"/>
<path d="M138.592 101.458C136.314 100.146 135.447 99.821 135.447 99.8195L135.4 99.7866C135.152 99.5958 134.954 99.3462 134.825 99.0603C134.825 99.0079 134.825 98.9555 134.825 98.9105V98.9255C134.863 98.2307 135.355 97.6002 135.824 97.0491C136.224 96.5789 136.623 96.1092 137.022 95.6399C137.16 95.4974 137.265 95.3268 137.331 95.1398C137.355 95.0419 137.366 94.9411 137.364 94.8403C137.364 94.7983 137.364 94.7579 137.364 94.7175C137.364 94.367 137.347 94.0166 137.335 93.6692C137.323 93.3622 137.245 92.9773 136.938 92.9204C136.78 92.8875 136.57 92.9444 136.489 92.8081C136.46 92.7525 136.452 92.6878 136.468 92.6269C136.468 92.6269 136.468 92.6359 136.468 92.6404C136.468 92.6349 136.468 92.6294 136.468 92.6239C136.527 92.3876 136.565 92.1466 136.582 91.9036C136.587 91.7803 136.571 91.6571 136.533 91.5397C136.354 91.0321 135.745 90.8239 135.206 90.7281C134.667 90.6322 134.062 90.5499 133.723 90.129C133.63 89.9887 133.53 89.8533 133.424 89.7232C133.267 89.585 133.076 89.491 132.871 89.4507C132.202 89.285 131.497 89.3466 130.867 89.6259C130.607 89.7427 130.345 89.8984 130.059 89.882C129.773 89.8655 129.508 89.6573 129.214 89.6079C128.741 89.527 128.287 89.876 128.054 90.2878C127.915 90.5322 127.841 90.808 127.839 91.089C127.839 91.1039 127.839 91.1204 127.839 91.1354C127.833 91.4374 127.944 91.7302 128.148 91.953C128.352 92.1657 128.656 92.3109 128.747 92.5895C128.781 92.7033 128.774 92.8261 128.804 92.9399C128.804 92.9549 128.813 92.9684 128.817 92.9833L128.801 93.0028C128.314 93.6288 128.051 94.3994 128.052 95.1922C128.057 95.9619 128.306 96.7103 128.763 97.3294C129.221 97.9484 129.863 98.4061 130.598 98.6365C130.598 98.6709 130.598 98.7069 130.598 98.7443C130.608 98.9691 130.569 99.1934 130.484 99.4016C130.398 99.6098 130.269 99.7968 130.104 99.9498L126.872 101.247C126.872 101.247 124.925 101.016 124.224 103.86C124.112 104.332 124.072 104.818 124.105 105.302C124.13 105.732 124.07 106.486 123.571 107.463C122.773 109.026 122.954 112.613 124.587 112.968C126.128 113.303 126.731 113.164 126.794 113.147V113.21C126.769 113.884 126.525 119.689 125.637 120.398C125.389 120.592 125.436 120.723 125.637 120.812C125.637 120.812 125.637 120.849 125.637 120.917C125.61 121.342 125.472 122.958 124.877 123.879C124.194 124.94 124.272 131.08 124.272 131.08L123.802 134.703C123.802 134.703 124.091 136.94 123.802 137.331C123.543 137.68 123.203 145.958 123.125 147.752H123.095C122.953 147.761 122.815 147.804 122.693 147.878C122.572 147.952 122.47 148.055 122.397 148.178C122.011 148.798 120.678 149.94 120.678 149.94C120.389 150.352 119.317 150.746 118.751 150.932C118.675 150.956 118.602 150.987 118.532 151.026C118.32 151.141 118.15 151.32 118.046 151.538C118.009 151.602 117.985 151.673 117.977 151.746C117.968 151.82 117.974 151.894 117.995 151.965C118.144 152.32 121.15 152.564 121.911 152.213C122.51 151.935 124.882 151.566 125.867 151.423C126.046 151.4 126.212 151.319 126.34 151.191C126.467 151.064 126.548 150.898 126.571 150.719C126.58 150.657 126.577 150.594 126.562 150.534C126.546 150.473 126.519 150.417 126.481 150.367C126.292 150.133 126.195 149.495 126.152 149.079C126.232 149.046 126.306 149.002 126.373 148.947C126.292 147.657 126.477 146.363 126.917 145.147C127.642 143.23 127.86 139.678 127.679 137.368C127.679 137.368 129.891 127.849 131.633 126.961C131.66 126.994 132.504 128.078 132.612 131.435C132.72 134.845 133.952 137.082 133.952 137.082C133.952 137.082 133.409 142.872 133.952 145.039L133.238 148.452C133.208 148.427 133.18 148.401 133.153 148.374C133.153 148.374 133.174 148.47 133.204 148.621L133.189 148.693L133.219 148.7C133.299 149.127 133.419 149.871 133.368 150.309C133.34 150.559 133.271 150.899 133.219 151.234C133.144 151.76 133.123 152.27 133.4 152.381C133.849 152.564 136.519 152.814 136.973 152.231C137.074 152.112 137.141 151.966 137.164 151.811C137.187 151.656 137.167 151.498 137.105 151.354C137.072 151.273 137.027 151.198 136.973 151.131C136.973 151.131 136.264 149.973 136.465 149.157C136.484 149.077 136.485 148.995 136.471 148.915C136.456 148.834 136.425 148.758 136.38 148.69C136.484 147.398 136.691 146.116 137.001 144.858C137.451 143.149 138.412 139.402 137.708 136.937C137.681 136.841 137.651 136.745 137.618 136.653C137.212 135.307 137.076 133.895 137.218 132.497C136.956 131.304 136.956 130.068 137.218 128.874C137.65 126.887 137.954 124.94 137.954 124.94C137.954 124.94 138.193 122.312 137.984 120.701L137.97 120.598L138.084 120.572C138.084 120.572 137.468 117.838 137.25 116.098C137.199 115.686 137.132 115.166 137.058 114.611C137.259 114.576 137.457 114.526 137.65 114.461C139.608 113.785 140.224 107.676 140.224 107.676V105.738C140.224 105.738 140.877 102.777 138.592 101.458ZM124.001 148.63L123.905 148.579L124.001 148.63Z" fill="url(#paint0_linear_13_1656)"/>
<path d="M137.41 136.711C138.259 139.154 137.26 143.118 136.811 144.888C136.509 146.168 136.308 147.469 136.212 148.781C135.179 148.956 134.122 148.931 133.097 148.709L133.846 145.064C133.316 142.905 133.846 137.135 133.846 137.135C133.846 137.135 132.648 134.904 132.537 131.506C132.432 128.162 131.609 127.081 131.582 127.046C129.87 127.936 127.717 137.419 127.717 137.419C127.893 139.72 127.681 143.26 126.968 145.172C126.538 146.386 126.357 147.674 126.436 148.959C126.189 149.168 125.845 149.203 125.473 149.144C124.463 148.98 123.251 148.109 123.251 148.109C123.251 148.109 123.64 137.776 123.923 137.384C124.206 136.991 123.923 134.764 123.923 134.764L124.383 131.154C124.383 131.154 124.313 125.03 124.982 123.966C125.563 123.048 125.697 121.436 125.723 121.014C125.723 120.947 125.723 120.909 125.723 120.909L126.748 119.683C126.748 119.683 136.66 118.934 137.403 119.683C137.585 119.865 137.702 120.282 137.765 120.803C137.969 122.408 137.735 125.027 137.735 125.027C137.735 125.027 137.436 126.974 137.013 128.955C136.758 130.145 136.758 131.376 137.013 132.566C136.875 133.96 137.01 135.368 137.41 136.711Z" fill="#65617D"/>
<path d="M136.79 152.233C136.348 152.817 133.747 152.57 133.304 152.383C133.033 152.27 133.054 151.763 133.127 151.239C133.174 150.905 133.241 150.565 133.268 150.318C133.34 149.68 133.057 148.387 133.057 148.387C133.057 148.387 133.641 149.007 133.782 148.387C133.814 148.269 133.878 148.162 133.967 148.077C134.056 147.993 134.166 147.934 134.286 147.908C134.59 147.816 134.916 147.837 135.206 147.965C135.665 148.164 136.432 148.589 136.294 149.163C136.1 149.976 136.79 151.129 136.79 151.129C136.844 151.197 136.887 151.272 136.919 151.352C136.981 151.497 137.002 151.655 136.979 151.811C136.956 151.966 136.891 152.112 136.79 152.233Z" fill="#A27772"/>
<path opacity="0.1" d="M136.79 152.233C136.348 152.817 133.747 152.57 133.304 152.383C133.033 152.27 133.054 151.763 133.127 151.239C133.406 151.369 133.876 151.478 134.673 151.405C134.858 151.387 135.044 151.381 135.23 151.387C135.793 151.413 136.357 151.402 136.919 151.354C136.981 151.498 137.001 151.657 136.979 151.812C136.956 151.967 136.891 152.113 136.79 152.233Z" fill="black"/>
<path opacity="0.1" d="M127.717 137.419C127.893 139.72 127.681 143.26 126.968 145.172C126.538 146.386 126.357 147.674 126.436 148.959C126.189 149.167 125.845 149.203 125.473 149.143C125.687 147.646 126.596 141.217 127.18 136.136C127.844 130.348 130.95 126.366 130.95 126.366L131.57 127.048C129.87 127.936 127.717 137.419 127.717 137.419Z" fill="black"/>
<path d="M135.728 100.216L135.296 102.34L133.18 105.898L130.569 104.782C130.569 104.782 127.02 101.066 129.25 100.535C129.517 100.478 129.77 100.366 129.991 100.206C130.429 99.875 130.566 99.3958 130.569 98.9256C130.552 98.3988 130.429 97.8809 130.207 97.4026L134.773 95.9695C134.584 96.5692 134.474 97.1909 134.445 97.8189C134.411 99.0619 134.872 99.6758 135.251 99.9679C135.392 100.082 135.554 100.166 135.728 100.216Z" fill="#FBBEBE"/>
<path opacity="0.1" d="M134.773 95.9695C134.584 96.5692 134.474 97.1909 134.445 97.8189C133.982 98.368 133.366 98.7666 132.676 98.9637C131.986 99.1608 131.252 99.1476 130.569 98.9256C130.552 98.3988 130.429 97.8809 130.207 97.4026L134.773 95.9695Z" fill="black"/>
<path d="M135.296 95.3854C135.296 96.0995 135.084 96.7976 134.687 97.3913C134.29 97.9851 133.726 98.4479 133.067 98.7211C132.407 98.9944 131.681 99.0659 130.981 98.9266C130.28 98.7873 129.637 98.4434 129.132 97.9385C128.627 97.4335 128.283 96.7902 128.144 96.0898C128.005 95.3894 128.076 94.6635 128.349 94.0038C128.623 93.344 129.085 92.7801 129.679 92.3834C130.273 91.9867 130.971 91.7749 131.685 91.7749C132.16 91.7737 132.63 91.8663 133.068 92.0473C133.507 92.2284 133.905 92.4943 134.241 92.8298C134.576 93.1653 134.842 93.5638 135.023 94.0024C135.204 94.4409 135.297 94.911 135.296 95.3854Z" fill="#FBBEBE"/>
<path opacity="0.1" d="M135.728 100.216L135.296 102.34L133.18 105.898L130.569 104.782C130.569 104.782 127.02 101.066 129.25 100.535C129.517 100.478 129.77 100.366 129.991 100.206C129.589 101.313 131.251 103.614 131.251 103.614C131.444 103.899 131.889 103.721 131.889 103.721C132.958 103.559 134.93 100.48 135.251 99.9678C135.392 100.082 135.554 100.166 135.728 100.216Z" fill="black"/>
<path opacity="0.1" d="M137.773 120.806C137.144 120.956 133.666 121.718 132.348 121.526C130.897 121.313 128.075 121.173 128.075 121.173C128.075 121.173 126.278 121.269 125.726 121.023C125.726 120.956 125.726 120.918 125.726 120.918L126.751 119.692C126.751 119.692 136.663 118.943 137.406 119.692C137.6 119.868 137.705 120.283 137.773 120.806Z" fill="black"/>
<path d="M131.251 103.721C131.251 103.721 129.383 101.134 130.087 100.127L126.932 101.42C126.932 101.42 125.033 101.19 124.349 104.023C124.239 104.494 124.199 104.979 124.23 105.462C124.256 105.889 124.197 106.641 123.711 107.614C122.932 109.172 123.112 112.748 124.702 113.101C126.293 113.455 126.862 113.278 126.862 113.278C126.862 113.278 126.649 119.756 125.729 120.499C124.81 121.242 128.076 121.065 128.076 121.065C128.076 121.065 130.897 121.215 132.348 121.42C133.8 121.625 137.87 120.671 137.87 120.671C137.87 120.671 137.271 117.946 137.055 116.211C136.84 114.477 136.348 110.784 136.348 110.784L139.959 105.894C139.959 105.894 140.595 102.937 138.366 101.629C136.136 100.32 135.296 99.9963 135.296 99.9963C135.296 99.9963 133.049 103.646 131.887 103.823C131.887 103.825 131.444 104.005 131.251 103.721Z" fill="#FF748E"/>
<path opacity="0.1" d="M127.109 104.748C127.109 104.748 127.074 105.916 127.287 106.376C127.5 106.835 128.277 109.384 128.277 109.384H126.508C126.508 109.384 127.464 108.358 127.393 107.863C127.323 107.367 127.109 104.748 127.109 104.748Z" fill="black"/>
<path d="M132.348 113.559C132.348 113.559 128.44 112.604 128.076 111.791C127.712 110.978 126.707 109.154 126.707 109.154L127.119 108.598L129.021 110.096C129.021 110.096 131.287 111.893 132.348 112.078C133.41 112.264 132.348 113.559 132.348 113.559Z" fill="#FBBEBE"/>
<path opacity="0.05" d="M132.348 113.559C132.348 113.559 128.44 112.604 128.076 111.791C127.712 110.978 126.707 109.154 126.707 109.154L127.119 108.598L129.021 110.096C129.021 110.096 131.287 111.893 132.348 112.078C133.41 112.264 132.348 113.559 132.348 113.559Z" fill="black"/>
<path d="M135.728 108.96V111.081H135.387C133.703 111.081 132.046 111.51 130.574 112.327L129.936 112.68L129.764 112.776L128.666 110.305L129.693 109.384H129.746C129.997 109.408 131.083 109.498 131.543 109.344C132.003 109.19 132.524 108.724 133.81 109.053C134.445 109.215 134.986 109.926 135.607 109.705L135.728 108.96Z" fill="#FBBEBE"/>
<path opacity="0.1" d="M139.144 105.101L139.853 105.898V107.827C139.853 107.827 139.254 113.916 137.34 114.588C135.426 115.261 132.016 114.199 132.016 114.199C132.016 114.199 131.134 111.863 131.546 111.72C131.958 111.578 135.191 110.726 135.191 110.726C135.191 110.726 135.144 107.154 135.853 106.093C135.853 106.093 135.393 102.765 136.985 102.695C138.577 102.624 139.144 105.101 139.144 105.101Z" fill="black"/>
<path d="M139.248 105.101L139.956 105.898V107.827C139.956 107.827 139.357 113.916 137.442 114.588C135.526 115.261 132.119 114.199 132.119 114.199C132.119 114.199 131.237 111.863 131.649 111.72C132.061 111.578 135.293 110.726 135.293 110.726C135.293 110.726 135.248 107.154 135.956 106.093C135.956 106.093 135.495 102.765 137.088 102.695C138.681 102.624 139.248 105.101 139.248 105.101Z" fill="#FF748E"/>
<path opacity="0.1" d="M134.306 96.9189C134.337 96.6861 134.309 96.4491 134.225 96.23C134.18 96.1217 134.101 96.0312 134 95.9726C133.899 95.9141 133.781 95.8908 133.665 95.9065C133.365 95.9769 133.23 96.3708 132.934 96.4651C132.684 96.5445 132.41 96.3678 132.29 96.1342C132.19 95.8906 132.148 95.6271 132.167 95.3644C132.167 95.0649 132.167 94.7729 132.167 94.4764C132.167 94.1544 132.157 93.807 131.958 93.5539C131.71 93.2394 131.131 93.1046 130.745 93.1151C130.487 93.1178 130.239 93.2172 130.051 93.3937C129.957 93.4887 129.842 93.5615 129.716 93.6066C129.59 93.6516 129.455 93.6679 129.322 93.6542C129.204 93.6362 129.094 93.5853 129.005 93.5074C128.915 93.4295 128.849 93.3278 128.814 93.214C128.814 93.21 128.814 93.2059 128.814 93.202C129.115 92.8042 129.495 92.473 129.93 92.2294C130.366 91.9858 130.847 91.835 131.343 91.7866C131.839 91.7381 132.341 91.793 132.815 91.9478C133.289 92.1026 133.726 92.354 134.098 92.6861C134.47 93.0182 134.769 93.4238 134.977 93.8773C135.184 94.3308 135.296 94.8224 135.304 95.3211C135.312 95.8198 135.217 96.3148 135.024 96.7749C134.831 97.2349 134.546 97.65 134.184 97.9941C134.244 97.6381 134.285 97.2792 134.306 96.9189Z" fill="black"/>
<path d="M129.32 93.548C129.203 93.5297 129.093 93.4788 129.003 93.4009C128.913 93.3231 128.846 93.2215 128.811 93.1078C128.783 92.994 128.79 92.8712 128.756 92.7589C128.674 92.4803 128.377 92.335 128.178 92.1239C127.78 91.7016 127.805 91.0053 128.087 90.4961C128.316 90.0858 128.757 89.7398 129.22 89.8192C129.506 89.8701 129.753 90.0738 130.044 90.0918C130.334 90.1097 130.578 89.954 130.833 89.8372C131.446 89.5593 132.136 89.4981 132.789 89.6635C132.99 89.7034 133.176 89.7971 133.328 89.9345C133.431 90.064 133.527 90.199 133.615 90.3389C133.945 90.7597 134.536 90.842 135.062 90.9379C135.588 91.0337 136.184 91.2374 136.356 91.748C136.471 92.0835 136.356 92.4474 136.294 92.7963C136.272 92.8678 136.276 92.9453 136.308 93.0134C136.39 93.1497 136.595 93.0928 136.757 93.1242C137.057 93.1871 137.132 93.5735 137.142 93.873C137.156 94.2204 137.165 94.5699 137.17 94.9213C137.179 95.0513 137.169 95.182 137.141 95.3091C137.076 95.4906 136.974 95.6564 136.841 95.7958L135.671 97.2005C135.153 97.8235 134.604 98.5483 134.707 99.3524C134.461 99.4618 134.171 99.2506 134.09 98.993C134.009 98.7354 134.074 98.4599 134.129 98.1963C134.223 97.7406 134.285 97.2787 134.313 96.8141C134.345 96.5809 134.317 96.3434 134.232 96.1238C134.188 96.0153 134.108 95.9248 134.007 95.8662C133.905 95.8077 133.787 95.7845 133.671 95.8003C133.371 95.8707 133.238 96.2645 132.941 96.3589C132.691 96.4398 132.417 96.2615 132.298 96.0279C132.198 95.7842 132.156 95.5208 132.175 95.2582V94.3702C132.175 94.0482 132.164 93.7008 131.965 93.4477C131.72 93.1332 131.138 92.9985 130.752 93.0089C130.494 93.0116 130.247 93.111 130.059 93.2875C129.963 93.3838 129.847 93.4573 129.719 93.5024C129.592 93.5475 129.455 93.5631 129.32 93.548Z" fill="#7C5C5C"/>
<path opacity="0.1" d="M130.135 104.66L131.245 109.212C131.245 109.212 132.118 109.208 130.135 104.66Z" fill="black"/>
<path opacity="0.1" d="M133.924 103.897C133.924 103.897 132.471 106.275 133.039 108.733L133.308 108.752C133.308 108.752 132.826 107.614 133.924 103.897Z" fill="black"/>
<path opacity="0.1" d="M134.843 117.35C134.843 117.35 136.625 116.76 136.756 118.128C136.756 118.128 136.419 117.189 134.843 117.35Z" fill="black"/>
<path opacity="0.1" d="M129.693 109.491C129.693 109.491 129.34 111.969 129.976 112.96C128.978 113.312 127.918 113.456 126.862 113.384L126.649 109.491H129.693Z" fill="black"/>
<path opacity="0.1" d="M129.936 112.68L129.764 112.776L128.666 110.305L129.693 109.384H129.746C129.729 109.504 129.443 111.632 129.936 112.68Z" fill="black"/>
<path d="M129.693 109.384C129.693 109.384 129.34 111.863 129.976 112.854C128.978 113.206 127.918 113.35 126.862 113.278L125.623 109.384H129.693Z" fill="#FF748E"/>
<path d="M126.631 150.726C126.611 150.903 126.532 151.068 126.407 151.195C126.283 151.322 126.12 151.403 125.944 151.427C124.984 151.577 122.667 151.936 122.083 152.215C121.334 152.57 118.402 152.321 118.26 151.968C118.24 151.897 118.234 151.823 118.243 151.749C118.251 151.676 118.275 151.605 118.311 151.541C118.379 151.4 118.475 151.275 118.593 151.172C118.711 151.069 118.849 150.991 118.998 150.942C119.552 150.756 120.597 150.365 120.879 149.955C120.879 149.955 122.182 148.814 122.553 148.199C122.623 148.077 122.722 147.975 122.84 147.901C122.959 147.827 123.095 147.784 123.234 147.775C123.544 147.76 123.889 147.917 124.031 148.595C124.031 148.595 125.729 149.564 126.189 148.715C126.189 148.715 126.259 150.02 126.541 150.377C126.578 150.427 126.605 150.483 126.621 150.543C126.636 150.603 126.64 150.665 126.631 150.726Z" fill="#A27772"/>
<path opacity="0.1" d="M126.631 150.726C126.611 150.903 126.532 151.068 126.407 151.195C126.283 151.322 126.12 151.403 125.944 151.427C124.984 151.577 122.667 151.936 122.083 152.215C121.334 152.57 118.402 152.321 118.26 151.968C118.24 151.897 118.234 151.823 118.243 151.749C118.251 151.676 118.275 151.605 118.311 151.541C118.412 151.326 118.578 151.148 118.785 151.032C119.265 151.349 120.328 151.661 122.667 151.295C124.898 150.947 126.002 150.605 126.541 150.373C126.579 150.423 126.606 150.48 126.622 150.541C126.637 150.601 126.64 150.664 126.631 150.726Z" fill="black"/>
<g opacity="0.1">
<path opacity="0.1" d="M136.29 92.8442C136.291 92.8382 136.291 92.8322 136.29 92.8262C136.36 92.5643 136.397 92.2946 136.399 92.0236C136.377 92.2403 136.34 92.4554 136.29 92.6675C136.276 92.7256 136.276 92.786 136.29 92.8442Z" fill="black"/>
<path opacity="0.1" d="M134.225 96.1567C134.28 96.2844 134.31 96.4219 134.312 96.5611C134.328 96.3692 134.298 96.1762 134.225 95.998C134.18 95.8894 134.101 95.7987 133.999 95.7399C133.898 95.6811 133.78 95.6576 133.663 95.673C133.364 95.7434 133.23 96.1388 132.934 96.2331C132.684 96.3125 132.41 96.1343 132.29 95.9007C132.189 95.6573 132.147 95.3936 132.167 95.1309C132.167 94.8314 132.167 94.5394 132.167 94.2444C132.167 93.9224 132.157 93.575 131.958 93.3219C131.71 93.0059 131.131 92.8727 130.743 92.8816C130.485 92.8845 130.238 92.9845 130.051 93.1617C129.957 93.2565 129.842 93.3289 129.716 93.3738C129.59 93.4186 129.455 93.4346 129.322 93.4207C129.204 93.4033 129.094 93.3526 129.003 93.2747C128.913 93.1967 128.847 93.0946 128.813 92.9805C128.783 92.8667 128.792 92.7454 128.757 92.6316C128.675 92.353 128.379 92.2092 128.179 91.9981C127.994 91.7921 127.887 91.5266 127.88 91.2493C127.866 91.413 127.885 91.5779 127.936 91.7339C127.988 91.8899 128.07 92.0338 128.179 92.1568C128.379 92.368 128.675 92.5132 128.757 92.7918C128.792 92.9041 128.783 93.0269 128.813 93.1407C128.848 93.2545 128.914 93.3562 129.004 93.4341C129.094 93.5119 129.204 93.5629 129.322 93.581C129.455 93.5947 129.59 93.5784 129.716 93.5333C129.842 93.4882 129.957 93.4155 130.051 93.3204C130.239 93.1459 130.485 93.0472 130.742 93.0434C131.129 93.0314 131.709 93.1692 131.956 93.4836C132.155 93.7367 132.164 94.0827 132.166 94.4061C132.166 94.7056 132.166 94.9977 132.166 95.2927C132.145 95.5558 132.187 95.8201 132.289 96.0639C132.408 96.2975 132.682 96.4742 132.932 96.3948C133.232 96.3005 133.359 95.9067 133.662 95.8348C133.778 95.8193 133.896 95.8424 133.998 95.9006C134.099 95.9588 134.179 96.0488 134.225 96.1567Z" fill="black"/>
<path opacity="0.1" d="M137.134 95.1819C137.07 95.3636 136.968 95.5299 136.835 95.6701C136.444 96.1373 136.054 96.605 135.665 97.0733C135.174 97.6648 134.653 98.3491 134.691 99.1039C134.726 98.412 135.209 97.7831 135.665 97.2335L136.835 95.8288C136.967 95.6891 137.069 95.5234 137.134 95.3421C137.163 95.2145 137.173 95.0833 137.164 94.9528C137.164 95.0301 137.154 95.107 137.134 95.1819Z" fill="black"/>
<path opacity="0.1" d="M134.083 98.8673C134.063 98.8055 134.051 98.7417 134.047 98.6771C134.037 98.7947 134.049 98.913 134.083 99.026C134.162 99.2836 134.454 99.4948 134.699 99.3854C134.699 99.333 134.689 99.2806 134.688 99.2357C134.445 99.333 134.156 99.1189 134.083 98.8673Z" fill="black"/>
</g>
<path opacity="0.1" d="M122.326 148.515C122.326 148.515 122.695 149.165 124.037 148.591L122.326 148.515Z" fill="black"/>
<path opacity="0.1" d="M133.654 148.67C133.654 148.67 134.812 150.032 136.269 149.12L133.654 148.67Z" fill="black"/>
<path opacity="0.1" d="M137.021 132.569C137.021 132.569 136.203 133.08 136.176 133.372C136.149 133.664 136.598 133.159 136.598 133.159L137.021 132.569Z" fill="black"/>
<path opacity="0.1" d="M137.343 136.483C137.059 136.72 136.706 136.858 136.336 136.876C135.725 136.903 135.776 137.699 136.176 137.46C136.576 137.22 137.343 136.483 137.343 136.483Z" fill="black"/>
<path opacity="0.1" d="M137.498 136.994C137.498 136.994 137.106 138.92 136.787 138.548L137.498 136.994Z" fill="black"/>
<g opacity="0.5">
<path opacity="0.5" d="M163.832 92.6839H153.949V94.7805H163.832V92.6839Z" fill="#DCE0ED"/>
<path opacity="0.5" d="M186.527 92.6839H176.644V94.7805H186.527V92.6839Z" fill="#DCE0ED"/>
<path opacity="0.5" d="M209.222 92.6839H199.339V94.7805H209.222V92.6839Z" fill="#DCE0ED"/>
</g>
<path opacity="0.1" d="M226.063 144.676C228.291 144.676 230.096 144.371 230.096 143.995C230.096 143.619 228.291 143.314 226.063 143.314C223.836 143.314 222.031 143.619 222.031 143.995C222.031 144.371 223.836 144.676 226.063 144.676Z" fill="#00BAFC"/>
<path opacity="0.1" d="M100.644 153.28C102.872 153.28 104.677 152.975 104.677 152.598C104.677 152.222 102.872 151.917 100.644 151.917C98.4171 151.917 96.6115 152.222 96.6115 152.598C96.6115 152.975 98.4171 153.28 100.644 153.28Z" fill="#00BAFC"/>
<path d="M217.237 152.315C220.563 152.315 223.259 151.859 223.259 151.297C223.259 150.735 220.563 150.279 217.237 150.279C213.911 150.279 211.216 150.735 211.216 151.297C211.216 151.859 213.911 152.315 217.237 152.315Z" fill="#00BAFC"/>
<path d="M219.726 149.633C220.001 149.409 220.201 149.107 220.3 148.766C220.374 148.422 220.228 148.01 219.9 147.884C219.531 147.743 219.137 147.998 218.838 148.257C218.538 148.516 218.198 148.808 217.808 148.754C218.008 148.572 218.158 148.341 218.243 148.083C218.328 147.826 218.345 147.551 218.293 147.285C218.276 147.175 218.229 147.071 218.158 146.986C217.953 146.767 217.583 146.86 217.337 147.032C216.559 147.58 216.342 148.637 216.337 149.59C216.259 149.247 216.325 148.889 216.324 148.541C216.322 148.194 216.225 147.793 215.928 147.608C215.744 147.51 215.538 147.462 215.329 147.468C214.979 147.454 214.588 147.489 214.35 147.745C214.05 148.064 214.13 148.597 214.387 148.943C214.645 149.289 215.04 149.512 215.401 149.754C215.691 149.928 215.939 150.164 216.126 150.445C216.147 150.485 216.165 150.526 216.178 150.569H218.374C218.864 150.319 219.319 150.004 219.726 149.633Z" fill="#00BAFC"/>
<path d="M100.829 142.49C100.829 142.49 101.652 143.567 100.45 145.186C99.2472 146.804 98.2558 148.181 98.6527 149.194C98.6527 149.194 100.468 146.177 101.947 146.135C103.427 146.093 102.453 144.305 100.829 142.49Z" fill="#00BAFC"/>
<path opacity="0.1" d="M100.829 142.49C100.901 142.594 100.958 142.708 100.998 142.828C102.438 144.521 103.205 146.101 101.82 146.14C100.531 146.177 98.9836 148.483 98.6122 149.066C98.6244 149.111 98.6389 149.155 98.6557 149.199C98.6557 149.199 100.471 146.181 101.95 146.14C103.43 146.098 102.453 144.305 100.829 142.49Z" fill="black"/>
<path d="M102.358 143.862C102.358 144.241 102.316 144.548 102.263 144.548C102.211 144.548 102.169 144.248 102.169 143.862C102.169 143.475 102.221 143.661 102.274 143.661C102.326 143.661 102.358 143.483 102.358 143.862Z" fill="#FFD037"/>
<path d="M102.883 144.314C102.551 144.495 102.26 144.605 102.236 144.558C102.212 144.512 102.459 144.327 102.792 144.146C103.124 143.965 102.994 144.097 103.018 144.146C103.042 144.196 103.216 144.133 102.883 144.314Z" fill="#FFD037"/>
<path d="M96.4843 142.49C96.4843 142.49 95.6607 143.567 96.8632 145.186C98.0657 146.804 99.0571 148.181 98.6602 149.194C98.6602 149.194 96.8467 146.177 95.3657 146.135C93.8846 146.093 94.8595 144.305 96.4843 142.49Z" fill="#00BAFC"/>
<path opacity="0.1" d="M96.4843 142.49C96.4123 142.594 96.3553 142.708 96.3151 142.828C94.8745 144.521 94.1077 146.101 95.4929 146.14C96.7823 146.177 98.3292 148.483 98.7006 149.066C98.6886 149.111 98.6736 149.156 98.6557 149.199C98.6557 149.199 96.8422 146.181 95.3612 146.14C93.8801 146.098 94.8595 144.305 96.4843 142.49Z" fill="black"/>
<path d="M94.9538 143.862C94.9538 144.241 94.9973 144.548 95.0497 144.548C95.1021 144.548 95.144 144.248 95.144 143.862C95.144 143.475 95.0916 143.661 95.0392 143.661C94.9868 143.661 94.9538 143.483 94.9538 143.862Z" fill="#FFD037"/>
<path d="M94.4297 144.314C94.7622 144.495 95.0512 144.605 95.0766 144.558C95.1021 144.512 94.8535 144.327 94.521 144.146C94.1886 143.965 94.3189 144.097 94.2934 144.146C94.268 144.196 94.0972 144.133 94.4297 144.314Z" fill="#FFD037"/>
<path d="M95.2204 149.058C95.2204 149.058 97.5206 148.986 98.2154 148.494C98.9103 148.001 101.754 147.409 101.926 148.202C102.098 148.994 105.383 152.139 102.786 152.16C100.189 152.18 96.7523 151.755 96.0605 151.334C95.3686 150.914 95.2204 149.058 95.2204 149.058Z" fill="#A8A8A8"/>
<path opacity="0.2" d="M102.826 151.884C100.23 151.905 96.7913 151.48 96.0994 151.059C95.5738 150.737 95.3626 149.585 95.2938 149.055H95.2159C95.2159 149.055 95.3656 150.909 96.0545 151.331C96.7434 151.754 100.183 152.177 102.78 152.156C103.529 152.156 103.788 151.884 103.774 151.489C103.669 151.731 103.383 151.879 102.826 151.884Z" fill="black"/>
<path d="M153.249 107.325C153.249 104.264 155.74 101.913 158.802 101.913H158.846V100.52H158.802C154.972 100.52 151.857 103.496 151.857 107.325C151.857 108.316 152.069 109.295 152.479 110.197C152.89 111.098 153.489 111.901 154.236 112.552L155.223 111.565C154.605 111.045 154.108 110.396 153.767 109.663C153.426 108.931 153.25 108.133 153.249 107.325Z" fill="#00BAFC"/>
<path opacity="0.5" d="M158.985 100.522V101.915C159.877 101.921 160.754 102.141 161.542 102.558C162.331 102.975 163.007 103.576 163.514 104.309C164.021 105.043 164.344 105.888 164.456 106.773C164.567 107.657 164.464 108.556 164.154 109.392C163.845 110.229 163.338 110.978 162.678 111.577C162.017 112.177 161.222 112.608 160.359 112.835C159.497 113.061 158.593 113.077 157.723 112.88C156.853 112.683 156.043 112.28 155.362 111.704L154.373 112.691C155.216 113.428 156.225 113.951 157.315 114.213C158.404 114.476 159.54 114.471 160.627 114.199C161.714 113.927 162.719 113.397 163.556 112.652C164.393 111.907 165.038 110.971 165.435 109.924C165.832 108.876 165.969 107.748 165.835 106.635C165.701 105.523 165.3 104.459 164.666 103.536C164.032 102.612 163.184 101.855 162.194 101.331C161.204 100.806 160.102 100.528 158.982 100.522H158.985Z" fill="#00BAFC"/>
<path opacity="0.5" d="M204.51 101.843C207.571 101.843 209.922 104.333 209.922 107.396C209.922 107.409 209.922 107.424 209.922 107.439H211.314C211.314 107.424 211.314 107.409 211.314 107.396C211.314 103.566 208.339 100.45 204.51 100.45C203.519 100.45 202.54 100.662 201.638 101.073C200.737 101.483 199.933 102.082 199.283 102.83L200.27 103.817C200.79 103.198 201.439 102.701 202.171 102.36C202.904 102.02 203.702 101.843 204.51 101.843Z" fill="#00BAFC"/>
<path d="M211.313 107.578H209.92C209.914 108.47 209.694 109.347 209.277 110.136C208.86 110.924 208.259 111.601 207.526 112.108C206.792 112.615 205.947 112.938 205.062 113.049C204.177 113.16 203.279 113.057 202.442 112.747C201.606 112.438 200.857 111.932 200.257 111.271C199.658 110.61 199.227 109.815 199 108.953C198.773 108.09 198.758 107.186 198.955 106.316C199.151 105.446 199.555 104.637 200.131 103.956L199.148 102.969C198.411 103.812 197.889 104.822 197.626 105.911C197.363 107 197.368 108.137 197.64 109.223C197.912 110.31 198.443 111.315 199.187 112.152C199.932 112.99 200.868 113.634 201.916 114.031C202.963 114.428 204.092 114.565 205.204 114.431C206.316 114.298 207.38 113.897 208.304 113.263C209.227 112.629 209.984 111.78 210.509 110.791C211.034 109.801 211.311 108.699 211.317 107.578H211.313Z" fill="#00BAFC"/>
<path opacity="0.5" d="M184.323 100.929L184.046 102.316C186.084 103.138 187.387 105.136 187.387 107.464C187.387 108.465 187.117 109.447 186.605 110.307C186.093 111.167 185.358 111.872 184.478 112.348C183.598 112.825 182.605 113.054 181.605 113.013C180.606 112.971 179.635 112.66 178.798 112.113C177.96 111.565 177.286 110.801 176.847 109.902C176.408 109.003 176.22 108.002 176.304 107.004C176.387 106.007 176.738 105.051 177.32 104.237C177.902 103.423 178.694 102.782 179.61 102.38L178.993 101.13C177.855 101.642 176.876 102.452 176.159 103.474C175.443 104.496 175.015 105.692 174.92 106.936C174.826 108.181 175.069 109.428 175.624 110.546C176.178 111.664 177.024 112.612 178.072 113.29C179.12 113.968 180.332 114.351 181.579 114.398C182.826 114.446 184.063 114.156 185.159 113.56C186.256 112.964 187.172 112.083 187.81 111.01C188.448 109.937 188.785 108.713 188.786 107.464C188.786 104.459 187.007 101.895 184.323 100.929Z" fill="#00BAFC"/>
<path d="M182.015 101.832C182.68 101.832 183.339 101.969 183.949 102.234L184.226 100.848C183.52 100.577 182.771 100.438 182.015 100.44C181.034 100.44 180.064 100.648 179.17 101.052L179.793 102.299C180.493 101.991 181.25 101.832 182.015 101.832Z" fill="#00BAFC"/>
</g>
<path d="M112.043 179.037C110.904 179.037 110.021 179.467 109.396 180.326C108.771 181.179 108.459 182.37 108.459 183.9C108.459 187.084 109.654 188.676 112.043 188.676C113.046 188.676 114.26 188.425 115.686 187.924V190.463C114.514 190.951 113.205 191.195 111.76 191.195C109.683 191.195 108.094 190.567 106.994 189.311C105.894 188.048 105.344 186.238 105.344 183.881C105.344 182.396 105.614 181.098 106.154 179.984C106.695 178.865 107.469 178.008 108.479 177.416C109.494 176.817 110.682 176.518 112.043 176.518C113.43 176.518 114.823 176.853 116.223 177.523L115.246 179.984C114.712 179.73 114.175 179.509 113.635 179.32C113.094 179.132 112.564 179.037 112.043 179.037ZM121.76 183.061H122.736C123.693 183.061 124.4 182.901 124.855 182.582C125.311 182.263 125.539 181.762 125.539 181.078C125.539 180.401 125.305 179.919 124.836 179.633C124.374 179.346 123.654 179.203 122.678 179.203H121.76V183.061ZM121.76 185.521V191H118.732V176.723H122.893C124.833 176.723 126.268 177.077 127.199 177.787C128.13 178.49 128.596 179.561 128.596 181C128.596 181.84 128.365 182.589 127.902 183.246C127.44 183.897 126.786 184.408 125.939 184.779C128.088 187.989 129.488 190.062 130.139 191H126.779L123.371 185.521H121.76ZM137.98 191L134.543 179.799H134.455C134.579 182.077 134.641 183.598 134.641 184.359V191H131.936V176.723H136.057L139.436 187.641H139.494L143.078 176.723H147.199V191H144.377V184.242C144.377 183.923 144.38 183.555 144.387 183.139C144.4 182.722 144.445 181.615 144.523 179.818H144.436L140.754 191H137.98ZM160.363 188.822C160.884 188.822 161.509 188.708 162.238 188.48V190.697C161.496 191.029 160.585 191.195 159.504 191.195C158.312 191.195 157.443 190.896 156.896 190.297C156.356 189.691 156.086 188.786 156.086 187.582V182.318H154.66V181.059L156.301 180.062L157.16 177.758H159.064V180.082H162.121V182.318H159.064V187.582C159.064 188.005 159.182 188.318 159.416 188.52C159.657 188.721 159.973 188.822 160.363 188.822ZM164.328 177.26C164.328 176.29 164.868 175.805 165.949 175.805C167.03 175.805 167.57 176.29 167.57 177.26C167.57 177.722 167.434 178.083 167.16 178.344C166.893 178.598 166.49 178.725 165.949 178.725C164.868 178.725 164.328 178.236 164.328 177.26ZM167.434 191H164.455V180.082H167.434V191ZM178.166 191H169.543V189.242L174.602 182.357H169.846V180.082H177.99V182.016L173.068 188.725H178.166V191ZM180.207 177.26C180.207 176.29 180.747 175.805 181.828 175.805C182.909 175.805 183.449 176.29 183.449 177.26C183.449 177.722 183.312 178.083 183.039 178.344C182.772 178.598 182.368 178.725 181.828 178.725C180.747 178.725 180.207 178.236 180.207 177.26ZM183.312 191H180.334V180.082H183.312V191ZM196.223 191H193.244V184.623C193.244 183.835 193.111 183.246 192.844 182.855C192.583 182.458 192.17 182.26 191.604 182.26C190.842 182.26 190.288 182.54 189.943 183.1C189.598 183.66 189.426 184.581 189.426 185.863V191H186.447V180.082H188.723L189.123 181.479H189.289C189.582 180.977 190.005 180.587 190.559 180.307C191.112 180.02 191.747 179.877 192.463 179.877C194.097 179.877 195.204 180.411 195.783 181.479H196.047C196.34 180.971 196.77 180.577 197.336 180.297C197.909 180.017 198.553 179.877 199.27 179.877C200.507 179.877 201.441 180.196 202.072 180.834C202.71 181.465 203.029 182.481 203.029 183.881V191H200.041V184.623C200.041 183.835 199.908 183.246 199.641 182.855C199.38 182.458 198.967 182.26 198.4 182.26C197.671 182.26 197.124 182.52 196.76 183.041C196.402 183.562 196.223 184.389 196.223 185.521V191ZM209.074 191H206.096V175.805H209.074V191ZM219.143 191L218.566 189.516H218.488C217.987 190.147 217.469 190.587 216.936 190.834C216.408 191.075 215.718 191.195 214.865 191.195C213.817 191.195 212.99 190.896 212.385 190.297C211.786 189.698 211.486 188.845 211.486 187.738C211.486 186.579 211.89 185.727 212.697 185.18C213.511 184.626 214.735 184.32 216.369 184.262L218.264 184.203V183.725C218.264 182.618 217.697 182.064 216.564 182.064C215.692 182.064 214.667 182.328 213.488 182.855L212.502 180.844C213.758 180.186 215.152 179.857 216.682 179.857C218.146 179.857 219.27 180.176 220.051 180.814C220.832 181.452 221.223 182.423 221.223 183.725V191H219.143ZM218.264 185.941L217.111 185.98C216.245 186.007 215.601 186.163 215.178 186.449C214.755 186.736 214.543 187.172 214.543 187.758C214.543 188.598 215.025 189.018 215.988 189.018C216.678 189.018 217.229 188.819 217.639 188.422C218.055 188.025 218.264 187.497 218.264 186.84V185.941ZM230.393 179.877C230.796 179.877 231.132 179.906 231.398 179.965L231.174 182.758C230.933 182.693 230.64 182.66 230.295 182.66C229.344 182.66 228.602 182.904 228.068 183.393C227.541 183.881 227.277 184.564 227.277 185.443V191H224.299V180.082H226.555L226.994 181.918H227.141C227.479 181.306 227.935 180.814 228.508 180.443C229.087 180.066 229.715 179.877 230.393 179.877Z" fill="black"/>
<path d="M123.422 230H122.125V217.844H123.422V230ZM133.562 225.711C133.562 227.107 133.211 228.198 132.508 228.984C131.805 229.766 130.833 230.156 129.594 230.156C128.828 230.156 128.148 229.977 127.555 229.617C126.961 229.258 126.503 228.742 126.18 228.07C125.857 227.398 125.695 226.612 125.695 225.711C125.695 224.315 126.044 223.229 126.742 222.453C127.44 221.672 128.409 221.281 129.648 221.281C130.846 221.281 131.797 221.68 132.5 222.477C133.208 223.273 133.562 224.352 133.562 225.711ZM127.039 225.711C127.039 226.805 127.258 227.638 127.695 228.211C128.133 228.784 128.776 229.07 129.625 229.07C130.474 229.07 131.117 228.786 131.555 228.219C131.997 227.646 132.219 226.81 132.219 225.711C132.219 224.622 131.997 223.797 131.555 223.234C131.117 222.667 130.469 222.383 129.609 222.383C128.76 222.383 128.12 222.661 127.688 223.219C127.255 223.776 127.039 224.607 127.039 225.711ZM139.75 221.281C140.13 221.281 140.471 221.312 140.773 221.375L140.594 222.578C140.24 222.5 139.927 222.461 139.656 222.461C138.964 222.461 138.37 222.742 137.875 223.305C137.385 223.867 137.141 224.568 137.141 225.406V230H135.844V221.438H136.914L137.062 223.023H137.125C137.443 222.466 137.826 222.036 138.273 221.734C138.721 221.432 139.214 221.281 139.75 221.281ZM145.992 230.156C144.727 230.156 143.727 229.771 142.992 229C142.263 228.229 141.898 227.159 141.898 225.789C141.898 224.409 142.237 223.312 142.914 222.5C143.596 221.688 144.51 221.281 145.656 221.281C146.729 221.281 147.578 221.635 148.203 222.344C148.828 223.047 149.141 223.977 149.141 225.133V225.953H143.242C143.268 226.958 143.521 227.721 144 228.242C144.484 228.763 145.164 229.023 146.039 229.023C146.961 229.023 147.872 228.831 148.773 228.445V229.602C148.315 229.799 147.88 229.94 147.469 230.023C147.062 230.112 146.57 230.156 145.992 230.156ZM145.641 222.367C144.953 222.367 144.404 222.591 143.992 223.039C143.586 223.487 143.346 224.107 143.273 224.898H147.75C147.75 224.081 147.568 223.456 147.203 223.023C146.839 222.586 146.318 222.367 145.641 222.367ZM162.273 230V224.43C162.273 223.747 162.128 223.237 161.836 222.898C161.544 222.555 161.091 222.383 160.477 222.383C159.669 222.383 159.073 222.615 158.688 223.078C158.302 223.542 158.109 224.255 158.109 225.219V230H156.812V224.43C156.812 223.747 156.667 223.237 156.375 222.898C156.083 222.555 155.628 222.383 155.008 222.383C154.195 222.383 153.599 222.628 153.219 223.117C152.844 223.602 152.656 224.398 152.656 225.508V230H151.359V221.438H152.414L152.625 222.609H152.688C152.932 222.193 153.276 221.867 153.719 221.633C154.167 221.398 154.667 221.281 155.219 221.281C156.557 221.281 157.432 221.766 157.844 222.734H157.906C158.161 222.286 158.531 221.932 159.016 221.672C159.5 221.411 160.052 221.281 160.672 221.281C161.641 221.281 162.365 221.531 162.844 222.031C163.328 222.526 163.57 223.32 163.57 224.414V230H162.273ZM171.703 230H170.406V221.438H171.703V230ZM170.297 219.117C170.297 218.82 170.37 218.604 170.516 218.469C170.661 218.328 170.844 218.258 171.062 218.258C171.271 218.258 171.451 218.328 171.602 218.469C171.753 218.609 171.828 218.826 171.828 219.117C171.828 219.409 171.753 219.628 171.602 219.773C171.451 219.914 171.271 219.984 171.062 219.984C170.844 219.984 170.661 219.914 170.516 219.773C170.37 219.628 170.297 219.409 170.297 219.117ZM178.438 230.156C177.88 230.156 177.37 230.055 176.906 229.852C176.448 229.643 176.062 229.326 175.75 228.898H175.656C175.719 229.398 175.75 229.872 175.75 230.32V233.844H174.453V221.438H175.508L175.688 222.609H175.75C176.083 222.141 176.471 221.802 176.914 221.594C177.357 221.385 177.865 221.281 178.438 221.281C179.573 221.281 180.448 221.669 181.062 222.445C181.682 223.221 181.992 224.31 181.992 225.711C181.992 227.117 181.677 228.211 181.047 228.992C180.422 229.768 179.552 230.156 178.438 230.156ZM178.25 222.383C177.375 222.383 176.742 222.625 176.352 223.109C175.961 223.594 175.76 224.365 175.75 225.422V225.711C175.75 226.914 175.951 227.776 176.352 228.297C176.753 228.812 177.396 229.07 178.281 229.07C179.021 229.07 179.599 228.771 180.016 228.172C180.438 227.573 180.648 226.747 180.648 225.695C180.648 224.628 180.438 223.81 180.016 223.242C179.599 222.669 179.01 222.383 178.25 222.383ZM189.789 227.664C189.789 228.461 189.492 229.076 188.898 229.508C188.305 229.94 187.471 230.156 186.398 230.156C185.263 230.156 184.378 229.977 183.742 229.617V228.414C184.154 228.622 184.594 228.786 185.062 228.906C185.536 229.026 185.992 229.086 186.43 229.086C187.107 229.086 187.628 228.979 187.992 228.766C188.357 228.547 188.539 228.216 188.539 227.773C188.539 227.44 188.393 227.156 188.102 226.922C187.815 226.682 187.253 226.401 186.414 226.078C185.617 225.781 185.049 225.523 184.711 225.305C184.378 225.081 184.128 224.828 183.961 224.547C183.799 224.266 183.719 223.93 183.719 223.539C183.719 222.841 184.003 222.292 184.57 221.891C185.138 221.484 185.917 221.281 186.906 221.281C187.828 221.281 188.729 221.469 189.609 221.844L189.148 222.898C188.289 222.544 187.51 222.367 186.812 222.367C186.198 222.367 185.734 222.464 185.422 222.656C185.109 222.849 184.953 223.115 184.953 223.453C184.953 223.682 185.01 223.878 185.125 224.039C185.245 224.201 185.435 224.354 185.695 224.5C185.956 224.646 186.456 224.857 187.195 225.133C188.211 225.503 188.896 225.875 189.25 226.25C189.609 226.625 189.789 227.096 189.789 227.664ZM193.125 221.438V226.992C193.125 227.69 193.284 228.211 193.602 228.555C193.919 228.898 194.417 229.07 195.094 229.07C195.99 229.07 196.643 228.826 197.055 228.336C197.471 227.846 197.68 227.047 197.68 225.938V221.438H198.977V230H197.906L197.719 228.852H197.648C197.383 229.273 197.013 229.596 196.539 229.82C196.07 230.044 195.534 230.156 194.93 230.156C193.888 230.156 193.107 229.909 192.586 229.414C192.07 228.919 191.812 228.128 191.812 227.039V221.438H193.125ZM212.648 230V224.43C212.648 223.747 212.503 223.237 212.211 222.898C211.919 222.555 211.466 222.383 210.852 222.383C210.044 222.383 209.448 222.615 209.062 223.078C208.677 223.542 208.484 224.255 208.484 225.219V230H207.188V224.43C207.188 223.747 207.042 223.237 206.75 222.898C206.458 222.555 206.003 222.383 205.383 222.383C204.57 222.383 203.974 222.628 203.594 223.117C203.219 223.602 203.031 224.398 203.031 225.508V230H201.734V221.438H202.789L203 222.609H203.062C203.307 222.193 203.651 221.867 204.094 221.633C204.542 221.398 205.042 221.281 205.594 221.281C206.932 221.281 207.807 221.766 208.219 222.734H208.281C208.536 222.286 208.906 221.932 209.391 221.672C209.875 221.411 210.427 221.281 211.047 221.281C212.016 221.281 212.74 221.531 213.219 222.031C213.703 222.526 213.945 223.32 213.945 224.414V230H212.648Z" fill="black"/>
</g>
<defs>
<filter id="filter0_d_13_1656" x="0" y="0" width="336" height="276" filterUnits="userSpaceOnUse" color-interpolation-filters="sRGB">
<feFlood flood-opacity="0" result="BackgroundImageFix"/>
<feColorMatrix in="SourceAlpha" type="matrix" values="0 0 0 0 0 0 0 0 0 0 0 0 0 0 0 0 0 0 127 0" result="hardAlpha"/>
<feOffset dy="8"/>
<feGaussianBlur stdDeviation="4"/>
<feColorMatrix type="matrix" values="0 0 0 0 0 0 0 0 0 0 0 0 0 0 0 0 0 0 0.1 0"/>
<feBlend mode="normal" in2="BackgroundImageFix" result="effect1_dropShadow_13_1656"/>
<feBlend mode="normal" in="SourceGraphic" in2="effect1_dropShadow_13_1656" result="shape"/>
</filter>
<linearGradient id="paint0_linear_13_1656" x1="129.139" y1="152.598" x2="129.139" y2="89.3548" gradientUnits="userSpaceOnUse">
<stop stop-color="#808080" stop-opacity="0.25"/>
<stop offset="0.54" stop-color="#808080" stop-opacity="0.12"/>
<stop offset="1" stop-color="#808080" stop-opacity="0.1"/>
</linearGradient>
<clipPath id="clip0_13_1656">
<rect width="169.22" height="130" fill="white" transform="translate(83.3899 24)"/>
</clipPath>
</defs>
</svg>
