<svg width="336" height="276" viewBox="0 0 336 276" fill="none" xmlns="http://www.w3.org/2000/svg">
<g filter="url(#filter0_d_13_165)">
<rect x="8" width="320" height="260" rx="5" fill="white"/>
<g clip-path="url(#clip0_13_165)">
<path opacity="0.5" d="M257.138 135.268C256.772 133.755 255.568 132.616 254.682 131.335C253.616 129.757 252.994 127.921 252.879 126.02C252.764 124.119 253.16 122.222 254.027 120.527C254.88 118.906 256.216 117.229 255.732 115.458C255.408 114.267 254.332 113.451 253.275 112.812C249.261 110.394 244.627 109.203 239.944 109.384C234.205 109.618 228.484 111.911 222.855 110.775C217.373 109.665 212.729 106.917 206.993 106.591C202.709 106.348 198.471 106.621 194.178 106.152C183.571 105.001 172.885 104.746 162.235 105.389C151.585 104.746 140.9 105.001 130.293 106.152C126.011 106.621 121.771 106.348 117.478 106.591C111.726 106.915 107.092 109.667 101.608 110.775C95.9766 111.913 90.2582 109.618 84.5185 109.384C79.8357 109.203 75.2021 110.394 71.1876 112.812C70.1223 113.451 69.057 114.267 68.7311 115.458C68.2496 117.227 69.5833 118.903 70.4355 120.527C71.3031 122.222 71.7005 124.119 71.5862 126.02C71.4719 127.921 70.8502 129.756 69.7857 131.335C68.8994 132.614 67.6956 133.755 67.3292 135.268C66.592 138.311 69.5492 140.991 72.4425 142.199C80.3362 145.499 89.9365 143.903 97.1569 148.499C100.393 150.561 103.225 153.872 107.06 153.996C109.653 154.079 112.011 152.639 114.276 151.371C117.665 149.474 121.208 147.865 124.867 146.562C128.063 145.425 131.448 144.513 134.821 144.89C139.97 145.459 162.23 156.214 172.265 149.858C179.138 145.501 184.499 145.465 189.661 144.888C193.034 144.511 196.417 145.422 199.615 146.56C203.274 147.863 206.817 149.471 210.206 151.369C212.469 152.636 214.83 154.077 217.422 153.994C221.257 153.87 224.089 150.559 227.325 148.497C234.541 143.899 244.14 145.497 252.04 142.197C254.918 140.984 257.877 138.313 257.138 135.268Z" fill="url(#paint0_linear_13_165)"/>
<path d="M256.094 135.206C255.732 133.715 254.541 132.582 253.665 131.316C252.614 129.754 252 127.938 251.888 126.059C251.775 124.179 252.168 122.303 253.026 120.627C253.878 119.023 255.191 117.365 254.714 115.616C254.392 114.438 253.329 113.63 252.285 113C248.315 110.608 243.732 109.429 239.101 109.608C233.425 109.838 227.768 112.107 222.199 110.982C216.775 109.887 212.186 107.164 206.503 106.842C202.266 106.604 198.066 106.872 193.831 106.416C183.34 105.278 172.772 105.026 162.239 105.662C151.706 105.026 141.138 105.278 130.647 106.416C126.412 106.881 122.212 106.61 117.975 106.842C112.295 107.162 107.703 109.885 102.279 110.982C96.7117 112.107 91.0529 109.838 85.3771 109.608C80.7458 109.429 76.1633 110.608 72.1932 113C71.1493 113.639 70.0861 114.438 69.7644 115.616C69.2872 117.365 70.6166 119.025 71.4518 120.627C72.3094 122.303 72.7025 124.179 72.5901 126.059C72.4777 127.938 71.8639 129.754 70.8126 131.316C69.9348 132.582 68.746 133.709 68.3838 135.206C67.636 138.215 70.5612 140.865 73.4183 142.05C81.2268 145.312 90.7205 143.733 97.8558 148.279C101.052 150.318 103.858 153.595 107.656 153.717C110.213 153.8 112.557 152.374 114.794 151.119C118.146 149.242 121.65 147.651 125.27 146.362C128.433 145.235 131.778 144.334 135.115 144.707C140.228 145.277 162.237 155.907 172.152 149.622C178.951 145.314 184.252 145.277 189.357 144.707C192.693 144.334 196.04 145.235 199.202 146.362C202.821 147.651 206.326 149.242 209.678 151.119C211.917 152.372 214.25 153.798 216.815 153.717C220.608 153.595 223.409 150.321 226.616 148.279C233.753 143.733 243.247 145.312 251.053 142.05C253.9 140.865 256.825 138.215 256.094 135.206Z" fill="#00BAFC"/>
<path opacity="0.6" d="M74.0468 70.706C74.6562 70.4929 75.3039 70.2905 75.9409 70.4013C77.0062 70.5867 77.754 71.5966 78.0715 72.6341C78.3889 73.6717 78.3783 74.7647 78.5807 75.83C78.7831 76.8953 79.2667 77.9967 80.2212 78.5059C81.1757 79.0152 82.3027 78.8149 83.3616 78.6913C84.7505 78.5311 86.1524 78.5183 87.5439 78.653C88.7114 78.7659 90.0835 79.16 90.4265 80.2828C90.7078 81.199 90.1496 82.1343 89.7874 83.0185C89.0928 84.6718 89.0374 86.6255 89.8321 88.2319C90.6268 89.8384 92.2375 91.0357 92.9108 92.7316C93.1058 93.1558 93.1625 93.6306 93.0727 94.0888C92.9731 94.4096 92.8093 94.7068 92.5912 94.9623C92.0628 95.642 91.4322 96.2407 90.9507 96.9565C89.9472 98.4479 89.6723 100.302 89.5573 102.093C89.4425 103.855 89.4525 105.623 89.5871 107.383C88.2789 106.957 86.8344 107.337 85.4858 107.057C82.6159 106.465 80.8241 103.069 77.901 102.862C76.5183 102.764 75.0312 103.416 73.7976 102.784C73.2082 102.444 72.747 101.92 72.4851 101.292C71.9638 100.181 71.8448 98.9234 72.1485 97.7342C72.3616 96.9118 72.7877 96.1064 72.7046 95.2606C72.6343 94.5362 72.1997 93.8971 71.7011 93.3666C70.28 91.8581 68.2176 90.9356 67.1971 89.131C66.733 88.2738 66.5393 87.2962 66.6416 86.3268C66.7439 85.3574 67.1374 84.4417 67.7702 83.7002C68.1345 83.3447 68.4794 82.9699 68.8035 82.5774C69.2936 81.8871 69.4427 81.0157 69.5088 80.1699C69.6494 78.1438 69.2957 75.9983 69.9583 74.0297C70.5527 72.2485 72.368 71.3026 74.0468 70.706Z" fill="#00BAFC"/>
<path opacity="0.6" d="M74.0767 70.7657C74.0767 70.7657 79.8952 103.08 87.4501 106.934" stroke="#535461" stroke-miterlimit="10"/>
<path opacity="0.6" d="M90.2646 79.7097C90.2646 79.7097 84.0327 80.5619 77.8073 86.9643" stroke="#535461" stroke-miterlimit="10"/>
<path opacity="0.6" d="M78.9024 90.7183C78.9024 90.7183 74.1065 86.0311 66.6133 86.8258" stroke="#535461" stroke-miterlimit="10"/>
<path opacity="0.6" d="M93.0087 92.7572C93.0087 92.7572 84.2564 93.5008 81.0159 96.8606" stroke="#535461" stroke-miterlimit="10"/>
<path opacity="0.6" d="M82.3261 99.9904C82.3261 99.9904 77.4259 99.1382 72.9027 102.025" stroke="#535461" stroke-miterlimit="10"/>
<path opacity="0.6" d="M254.183 45.3226C253.205 44.9753 252.168 44.6579 251.147 44.8347C249.443 45.133 248.241 46.7522 247.738 48.4119C247.235 50.0716 247.246 51.8421 246.922 53.5465C246.598 55.251 245.823 57.0172 244.293 57.8353C242.763 58.6535 240.957 58.3296 239.259 58.1336C237.034 57.8743 234.789 57.8508 232.56 58.0633C230.687 58.2444 228.491 58.8772 227.941 60.6754C227.492 62.1454 228.384 63.6411 228.981 65.0579C230.095 67.7062 230.185 70.8402 228.908 73.4161C227.611 76.0366 225.052 77.9115 223.974 80.628C223.701 81.3183 223.529 82.0832 223.714 82.8012C223.874 83.3161 224.137 83.7931 224.487 84.2031C225.34 85.2939 226.345 86.2548 227.117 87.3989C228.725 89.7851 229.162 92.7594 229.349 95.6314C229.533 98.4548 229.518 101.288 229.302 104.109C231.399 103.419 233.717 104.034 235.877 103.589C240.477 102.641 243.349 97.1973 248.034 96.8649C250.25 96.7094 252.634 97.7513 254.611 96.7371C255.574 96.2428 256.258 95.3203 256.716 94.3381C257.538 92.5578 257.718 90.5476 257.226 88.6495C256.878 87.3307 256.203 86.0417 256.335 84.6846C256.448 83.5234 257.142 82.4986 257.944 81.6507C260.221 79.2325 263.528 77.7539 265.164 74.8627C266.698 72.1527 266.31 68.486 264.246 66.1573C263.705 65.5458 263.061 65.0217 262.588 64.357C261.802 63.2512 261.551 61.8536 261.457 60.4985C261.233 57.2494 261.785 53.8128 260.735 50.6575C259.776 47.7855 256.868 46.2664 254.183 45.3226Z" fill="#00BAFC"/>
<path opacity="0.6" d="M254.128 45.4078C254.128 45.4078 244.802 97.2037 232.69 103.38" stroke="#535461" stroke-miterlimit="10"/>
<path opacity="0.6" d="M228.18 59.7443C228.18 59.7443 238.168 61.1164 248.147 71.375" stroke="#535461" stroke-miterlimit="10"/>
<path opacity="0.6" d="M246.392 77.3895C246.392 77.3895 254.081 69.8708 266.089 71.1491" stroke="#535461" stroke-miterlimit="10"/>
<path opacity="0.6" d="M223.793 80.6578C223.793 80.6578 237.82 81.8488 243.015 87.237" stroke="#535461" stroke-miterlimit="10"/>
<path opacity="0.6" d="M240.905 92.2523C240.905 92.2523 248.765 90.876 256.011 95.512" stroke="#535461" stroke-miterlimit="10"/>
<path d="M82.5626 24V29.3243V129.505H237.439V29.3243V24H82.5626Z" fill="url(#paint1_linear_13_165)"/>
<path d="M235.798 28.7874H84.8594V127.596H235.798V28.7874Z" fill="white"/>
<path d="M235.798 24.0874H84.8594V31.3568H235.798V24.0874Z" fill="#EEEEEE"/>
<path d="M90.6033 29.3733C91.5764 29.3733 92.3653 28.5844 92.3653 27.6113C92.3653 26.6382 91.5764 25.8493 90.6033 25.8493C89.6302 25.8493 88.8414 26.6382 88.8414 27.6113C88.8414 28.5844 89.6302 29.3733 90.6033 29.3733Z" fill="#FF5252"/>
<path d="M95.4503 29.3733C96.4234 29.3733 97.2123 28.5844 97.2123 27.6113C97.2123 26.6382 96.4234 25.8493 95.4503 25.8493C94.4772 25.8493 93.6884 26.6382 93.6884 27.6113C93.6884 28.5844 94.4772 29.3733 95.4503 29.3733Z" fill="#FFFF00"/>
<path d="M100.297 29.3733C101.27 29.3733 102.059 28.5844 102.059 27.6113C102.059 26.6382 101.27 25.8493 100.297 25.8493C99.3243 25.8493 98.5354 26.6382 98.5354 27.6113C98.5354 28.5844 99.3243 29.3733 100.297 29.3733Z" fill="#69F0AE"/>
<path opacity="0.5" d="M146.89 43.0003H90.6439V45.3439H146.89V43.0003Z" fill="#00BAFC"/>
<path opacity="0.5" d="M146.89 47.6875H90.6439V50.0311H146.89V47.6875Z" fill="#00BAFC"/>
<path opacity="0.5" d="M146.89 52.3747H90.6439V54.7183H146.89V52.3747Z" fill="#00BAFC"/>
<path opacity="0.5" d="M146.891 57.0619H110.032V59.4056H146.891V57.0619Z" fill="#00BAFC"/>
<path opacity="0.5" d="M120.259 61.7491H90.6439V64.0928H120.259V61.7491Z" fill="#00BAFC"/>
<path opacity="0.5" d="M129.42 66.4364H106.623V68.78H129.42V66.4364Z" fill="#00BAFC"/>
<path opacity="0.5" d="M220.608 59.4055H154.347V97.5424H220.608V59.4055Z" fill="#00BAFC"/>
<path d="M228.491 63.0275H162.23V101.164H228.491V63.0275Z" fill="#EEEEEE"/>
<path opacity="0.5" d="M268.328 98.2114C268.465 98.0356 268.54 97.8189 268.541 97.5957C268.541 97.5957 268.541 97.5829 268.541 97.5787C268.541 97.5744 268.554 97.5339 268.56 97.5126V97.4849C268.561 97.4643 268.561 97.4437 268.56 97.4231C268.56 97.4231 268.56 97.4061 268.56 97.3976C268.562 97.3721 268.562 97.3464 268.56 97.3209C268.434 96.4686 263.37 90.9164 262.104 84.1434C261.964 83.406 261.755 82.6834 261.48 81.9851C261.519 81.6358 261.496 81.2824 261.412 80.9412C261.199 80.074 260.773 79.1941 260.986 78.3291C261.016 78.216 261.055 78.1055 261.103 77.9989C261.369 77.6084 261.613 77.2037 261.834 76.7866C261.916 76.6506 261.988 76.5081 262.047 76.3605C262.825 74.3109 260.417 72.1952 260.86 70.0562C261.052 69.1294 261.77 68.3198 261.751 67.3759C261.727 66.2957 260.734 65.4584 259.703 65.0579C258.672 64.6574 257.537 64.5423 256.525 64.0949C254.307 63.1127 253.092 60.7414 251.068 59.4226C248.497 57.7501 245.141 58.0484 242.058 58.4809C241.957 58.4958 241.86 58.5355 241.778 58.5964C241.695 58.6573 241.629 58.7377 241.585 58.8303H241.555C241.532 58.8985 241.504 58.9645 241.474 59.0306C241.048 59.7571 240.33 60.3089 239.621 60.8181C238.756 61.4274 237.829 62.0282 237.301 62.9316C237.222 63.0658 237.156 63.1937 237.098 63.3172C235.948 65.369 237.33 66.2553 239.016 66.7474C238.965 67.0409 238.939 67.3381 238.939 67.6359C238.939 70.6186 241.434 73.0539 244.508 73.0539C244.751 73.0536 244.994 73.0379 245.235 73.007L245.414 73.1242H245.454C246.025 73.5354 246.519 74.051 246.732 74.6646L244.947 76.0281C244.947 76.0281 245.02 76.2156 245.126 76.5139L238.108 79.7481C235.449 79.8716 231.145 71.4964 231.145 71.4964C231.145 71.4964 230.506 66.6942 228.233 65.8313C227.547 65.5714 227.274 66.1146 227.227 67.001C226.211 68.0662 227.918 74.0488 227.918 74.0488L233.361 83.6555C233.868 84.6398 234 85.2555 236.399 85.6263C238.374 85.9288 244.527 83.7428 246.669 82.9503L246.769 83.8025C246.52 84.4522 246.41 85.1467 246.445 85.8414C246.445 87.4117 247.146 89.6956 250.567 91.5151C250.567 91.5151 254.1 96.0809 253.708 100.391C253.708 100.391 253.878 100.57 254.151 100.804C254.113 102.019 253.938 103.517 253.327 104.1C253.286 104.138 253.256 104.186 253.239 104.239C253.223 104.292 253.22 104.348 253.231 104.403C253.218 104.467 253.225 104.533 253.252 104.592C253.279 104.651 253.323 104.701 253.38 104.733L248.921 112.542C248.754 112.755 248.586 112.968 248.413 113.181C247.586 114.236 246.667 115.216 245.667 116.11C244.924 116.773 244.15 117.497 243.997 117.768C243.76 118.194 243.166 119.568 243.417 120.704C243.743 122.081 243.876 123.496 243.814 124.909L243.236 135.01C243.043 136.138 242.776 137.252 242.437 138.345H242.35C242.35 138.345 240.198 140.931 236.781 141.54C233.363 142.15 233.489 143.884 234.501 144.127C235.513 144.37 247.793 143.88 247.793 143.88C247.793 143.88 248.258 142.974 248.13 142.148C252.05 141.771 257.481 141.131 257.481 141.131C257.481 141.131 258.225 139.344 257.145 138.564C256.738 138.252 256.436 137.823 256.279 137.335C256.216 137.062 256.145 136.751 256.077 136.425C256.06 136.265 256.06 136.167 256.06 136.167H256.024C255.834 135.215 255.683 134.194 255.77 133.66C256.088 132.243 256.91 124.053 254.884 121.714C253.964 120.648 254.089 119.438 254.498 118.428C256.929 116.837 260.33 113.413 262.296 111.342C262.407 111.434 262.509 111.525 262.605 111.617L262.669 111.679C262.669 111.679 269.361 108.366 269.389 102.517C269.399 101.016 269.034 99.536 268.328 98.2114ZM246.892 139.467C246.88 139.254 246.888 139.04 246.916 138.828L246.703 138.805C246.826 137.876 247.129 136.836 247.806 136.118C248.97 134.011 249.792 131.733 250.244 129.369L251.473 134.02C251.473 134.02 251.597 134.983 251.631 136.001H251.609C251.609 136.001 249.894 138.449 246.892 139.467Z" fill="url(#paint2_linear_13_165)"/>
<path d="M252.449 79.2282C252.449 79.2282 249.443 80.3105 247.762 82.1151C247.762 82.1151 239.582 85.3621 237.296 85.002C235.01 84.6419 234.891 84.039 234.409 83.0845L229.236 73.7101C229.236 73.7101 227.072 65.8909 229.236 66.7325C231.401 67.5741 232.006 72.2719 232.006 72.2719C232.006 72.2719 236.097 80.4511 238.621 80.3318L245.471 77.0678C245.471 77.0678 247.035 74.7817 247.757 74.9032C248.48 75.0246 252.449 79.2282 252.449 79.2282Z" fill="#FDB797"/>
<g opacity="0.05">
<path opacity="0.05" d="M252.449 79.2282C252.449 79.2282 249.443 80.3105 247.762 82.1151C247.762 82.1151 239.582 85.3621 237.296 85.002C235.01 84.6419 234.891 84.039 234.409 83.0845L229.236 73.7101C229.236 73.7101 227.072 65.8909 229.236 66.7325C231.401 67.5741 232.006 72.2719 232.006 72.2719C232.006 72.2719 236.097 80.4511 238.621 80.3318L245.471 77.0678C245.471 77.0678 247.035 74.7817 247.757 74.9032C248.48 75.0246 252.449 79.2282 252.449 79.2282Z" fill="black"/>
</g>
<path d="M247.51 74.7945L245.111 76.6779C245.111 76.6779 246.311 79.8162 246.01 80.9156C245.71 82.015 250.808 79.1899 250.808 79.1899L248.71 74.4813L247.51 74.7945Z" fill="#F9CE43"/>
<g opacity="0.05">
<path opacity="0.05" d="M247.51 74.7945L245.111 76.6779C245.111 76.6779 246.311 79.8162 246.01 80.9156C245.71 82.015 250.808 79.1899 250.808 79.1899L248.71 74.4813L247.51 74.7945Z" fill="black"/>
</g>
<path d="M243.368 72.6981C243.368 72.6981 248.72 74.443 246.255 77.5089L253.953 73.7804C253.953 73.7804 250.706 74.0211 248.661 69.0932L243.368 72.6981Z" fill="#FDB797"/>
<path d="M253.471 104.094L246.856 116.002L251.309 133.314C251.309 133.314 251.79 137.164 251.068 137.524H256.12C256.12 137.524 255.146 134.116 255.397 132.954C255.698 131.572 256.48 123.58 254.545 121.287C252.611 118.995 255.508 115.995 255.508 115.995L261.282 106.853L253.471 104.094Z" fill="#FDB797"/>
<g opacity="0.05">
<path opacity="0.05" d="M253.471 104.094L246.856 116.002L251.309 133.314C251.309 133.314 251.79 137.164 251.068 137.524H256.12C256.12 137.524 255.218 134.096 255.397 132.954C255.576 131.812 256.48 123.58 254.545 121.287C252.611 118.995 255.508 115.995 255.508 115.995L261.282 106.853L253.471 104.094Z" fill="black"/>
</g>
<path d="M251.437 135.258C251.437 135.258 249.604 137.957 246.409 138.813C243.213 139.67 243.473 141.34 244.451 141.502C245.429 141.664 257.021 140.26 257.021 140.26C257.021 140.26 257.726 138.515 256.701 137.752C255.677 136.99 255.67 135.409 255.67 135.409L251.437 135.258Z" fill="#0D134D"/>
<g opacity="0.1">
<path opacity="0.1" d="M253.834 99.281C253.834 99.281 254.119 103.193 253.077 104.22C253.041 104.254 253.013 104.296 252.996 104.343C252.979 104.39 252.973 104.44 252.98 104.489C252.986 104.539 253.004 104.586 253.032 104.628C253.06 104.669 253.097 104.703 253.141 104.727L256.239 106.378L259.009 101.086L253.834 99.281Z" fill="black"/>
</g>
<path d="M253.834 99.1617C253.834 99.1617 254.119 103.073 253.077 104.1C253.041 104.134 253.013 104.177 252.996 104.223C252.979 104.27 252.973 104.321 252.98 104.37C252.986 104.42 253.004 104.467 253.032 104.508C253.06 104.549 253.097 104.583 253.141 104.607L256.239 106.259L259.009 100.966L253.834 99.1617Z" fill="#E23553"/>
<g opacity="0.1">
<path opacity="0.1" d="M253.834 99.3748C253.834 99.3748 254.119 103.286 253.077 104.313C253.041 104.347 253.013 104.39 252.996 104.437C252.979 104.483 252.973 104.534 252.98 104.583C252.986 104.633 253.004 104.68 253.032 104.721C253.06 104.762 253.097 104.796 253.141 104.82L256.239 106.472L259.009 101.179L253.834 99.3748Z" fill="black"/>
</g>
<path d="M253.953 106.859C253.953 106.859 252.165 108.052 248.413 112.963C247.629 113.992 246.756 114.949 245.804 115.825C245.098 116.464 244.363 117.18 244.216 117.444C243.99 117.851 243.426 119.204 243.667 120.312C243.976 121.658 244.103 123.039 244.044 124.419L243.496 134.286C243.496 134.286 242.774 138.737 241.813 139.218L246.745 140.07C246.745 140.07 246.385 136.943 247.828 135.383C247.828 135.383 251.196 129.609 250.354 123.113C250.354 123.113 249.994 120.226 253.241 118.663C256.488 117.099 263.106 109.52 263.106 109.52L253.953 106.859Z" fill="#FDB797"/>
<path d="M242.646 137.533C242.646 137.533 240.601 140.06 237.354 140.661C234.107 141.261 234.226 142.947 235.189 143.187C236.152 143.428 247.819 142.947 247.819 142.947C247.819 142.947 248.671 141.264 247.7 140.42C246.728 139.576 246.978 138.014 246.978 138.014L242.646 137.533Z" fill="#0D134D"/>
<g opacity="0.1">
<path opacity="0.1" d="M256.961 100.485C256.961 100.485 255.493 105.415 253.633 106.851C253.599 106.877 253.572 106.911 253.556 106.951C253.539 106.991 253.534 107.034 253.54 107.077C253.547 107.12 253.564 107.16 253.592 107.193C253.619 107.226 253.655 107.252 253.695 107.266C255.233 107.827 260.176 109.714 261.894 111.432L261.953 111.491C261.953 111.491 272.237 106.259 266.704 97.3571L256.961 100.485Z" fill="black"/>
</g>
<path d="M256.961 100.365C256.961 100.365 255.493 105.296 253.633 106.732C253.599 106.757 253.572 106.792 253.556 106.832C253.539 106.872 253.534 106.915 253.54 106.958C253.547 107 253.564 107.04 253.592 107.074C253.619 107.107 253.655 107.132 253.695 107.147C255.233 107.707 260.176 109.595 261.894 111.312L261.953 111.372C261.953 111.372 272.237 106.139 266.704 97.2378L256.961 100.365Z" fill="#E23553"/>
<g opacity="0.1">
<path opacity="0.1" d="M248.516 75.9195C247.752 76.4336 246.916 76.8327 246.036 77.104L246.862 84.4609C246.862 84.4609 244.93 88.7859 250.457 91.807C250.457 91.807 253.812 96.2663 253.44 100.476C253.44 100.476 255.24 102.407 256.444 101.927C257.647 101.448 256.563 102.168 256.804 102.049C257.044 101.929 257.524 103.014 261.254 102.059C264.985 101.105 267.646 98.5886 267.52 97.7449C267.395 96.9012 262.605 91.4768 261.418 84.8571C260.232 78.2375 253.148 73.529 253.148 73.529C253.148 73.529 252.913 73.6589 252.508 73.8315C251.124 74.4191 249.788 75.1174 248.516 75.9195Z" fill="black"/>
</g>
<g opacity="0.1">
<path opacity="0.1" d="M253.54 106.896C253.535 106.947 253.548 106.999 253.576 107.043C253.604 107.086 253.646 107.119 253.695 107.136C255.02 107.62 258.872 109.088 261.012 110.584C259.16 109.088 255.221 107.535 253.54 106.896Z" fill="black"/>
<path opacity="0.1" d="M266.704 97.2378L266.491 97.3102C271.219 105.575 262.315 110.567 261.538 110.982C261.672 111.093 261.793 111.195 261.904 111.312L261.964 111.372C261.964 111.372 272.237 106.139 266.704 97.2378Z" fill="black"/>
</g>
<path d="M261.291 101.808C257.562 102.771 257.081 101.689 256.84 101.808C256.599 101.927 257.692 101.207 256.48 101.689C255.267 102.17 253.474 100.244 253.474 100.244C253.491 100.031 253.499 99.8328 253.499 99.6261C253.512 95.6037 250.457 91.5833 250.457 91.5833C244.917 88.5771 246.848 84.2457 246.848 84.2457L246.622 82.2728L246.002 76.891C246.881 76.6181 247.715 76.2175 248.477 75.7022C249.748 74.898 251.081 74.197 252.464 73.6057C252.871 73.431 253.103 73.301 253.103 73.301C253.103 73.301 260.2 77.9882 261.412 84.6079C262.624 91.2275 267.427 96.637 267.546 97.4785C267.665 98.3201 265.019 100.845 261.291 101.808Z" fill="#F9CE43"/>
<g opacity="0.1">
<path opacity="0.1" d="M248.78 69.2104L243.488 72.8195C244.217 73.0726 244.911 73.4185 245.552 73.8486C247.355 73.5951 248.458 72.3039 249.202 70.7145C248.912 70.2501 249.04 69.8346 248.78 69.2104Z" fill="black"/>
</g>
<path d="M244.691 73.7825C247.614 73.7825 249.984 71.4131 249.984 68.4902C249.984 65.5674 247.614 63.1979 244.691 63.1979C241.768 63.1979 239.399 65.5674 239.399 68.4902C239.399 71.4131 241.768 73.7825 244.691 73.7825Z" fill="#FDB797"/>
<g opacity="0.1">
<path opacity="0.1" d="M262.132 101.207C258.404 102.17 257.922 101.088 257.681 101.207C257.441 101.326 258.534 100.606 257.321 101.088C256.109 101.569 254.315 99.6432 254.315 99.6432C254.332 99.4301 254.341 99.232 254.341 99.0253C254.356 95.0092 251.307 90.9825 251.307 90.9825C245.767 87.9763 247.698 83.6449 247.698 83.6449L247.474 81.6698L246.888 76.5757C246.605 76.7033 246.312 76.808 246.012 76.8889L246.622 82.2728L246.85 84.2457C246.85 84.2457 244.932 88.5771 250.459 91.5833C250.459 91.5833 253.508 95.6101 253.493 99.6261C253.493 99.8392 253.493 100.037 253.467 100.244C253.467 100.244 255.272 102.162 256.473 101.689C257.675 101.216 256.593 101.929 256.833 101.808C257.074 101.686 257.556 102.771 261.284 101.808C262.976 101.37 264.561 100.594 265.944 99.526C264.771 100.286 263.484 100.853 262.132 101.207Z" fill="black"/>
</g>
<path d="M252.148 80.2764C252.148 80.2764 249.142 81.3588 247.461 83.1633C247.461 83.1633 239.282 86.4103 236.996 86.0502C234.71 85.6902 234.59 85.0872 234.109 84.1327L228.936 74.7583C228.936 74.7583 226.771 66.9392 228.936 67.7807C231.101 68.6223 231.706 73.3202 231.706 73.3202C231.706 73.3202 235.796 81.4994 238.321 81.3801L245.173 78.1118C245.173 78.1118 246.737 75.8257 247.459 75.9471C248.181 76.0686 252.148 80.2764 252.148 80.2764Z" fill="#FDB797"/>
<g opacity="0.1">
<path opacity="0.1" d="M248.088 75.8726C248.088 75.8726 245.593 75.6446 244.87 78.7723C244.148 81.8999 250.41 83.8238 250.41 83.8238L253.778 79.1366L248.088 75.8726Z" fill="black"/>
</g>
<path d="M248.209 75.8726C248.209 75.8726 245.714 75.6446 244.992 78.7723C244.27 81.8999 250.531 83.8238 250.531 83.8238L253.9 79.1366L248.209 75.8726Z" fill="#F9CE43"/>
<g opacity="0.1">
<path opacity="0.1" d="M247.19 76.4287C246.813 76.6189 246.418 76.7717 246.01 76.8846L246.031 77.0657C246.429 76.8741 246.816 76.6614 247.19 76.4287Z" fill="black"/>
<path opacity="0.1" d="M267.546 97.4786C267.427 96.6263 262.614 91.2233 261.412 84.6079C260.21 77.9925 253.103 73.301 253.103 73.301C253.103 73.301 252.868 73.431 252.464 73.6057C251.383 74.0701 250.331 74.6002 249.315 75.193C249.989 74.8379 250.678 74.5098 251.381 74.2086C251.788 74.0339 252.021 73.904 252.021 73.904C252.021 73.904 259.117 78.5912 260.33 85.2108C261.542 91.8305 266.344 97.2399 266.464 98.0815C266.54 98.612 265.515 99.8115 263.813 100.868C266.15 99.7071 267.637 98.1135 267.546 97.4786Z" fill="black"/>
</g>
<path opacity="0.1" d="M249.639 75.9216C249.639 75.9216 252.749 77.462 253.335 80.4234" stroke="black" stroke-miterlimit="10"/>
<g opacity="0.1">
<path opacity="0.1" d="M242.033 68.1919C242.529 68.3027 243.083 68.4583 243.328 68.9035C243.505 69.2274 243.473 69.6343 243.645 69.9688C244.088 70.804 245.388 70.5164 246.202 71.0064C247.693 71.9055 246.72 74.7093 248.205 75.6127C248.484 75.7831 248.814 75.8513 249.102 76.0068C250.357 76.6928 250.18 78.5081 249.954 79.9206C249.728 81.3332 249.997 83.2656 251.413 83.4659C252.193 83.5745 253.069 83.0589 253.725 83.4914C254.068 83.7173 254.224 84.1306 254.511 84.431C254.709 84.6281 254.96 84.7631 255.233 84.8195C255.506 84.8759 255.79 84.8512 256.049 84.7485C256.531 84.5482 256.878 84.0901 257.379 83.9431C258.184 83.7066 259.083 84.3586 259.859 84.0582C260.634 83.7578 260.811 82.6371 260.611 81.7913C260.411 80.9454 260.002 80.0868 260.215 79.2346C260.391 78.5315 260.967 77.9946 261.218 77.3171C261.955 75.3165 259.669 73.2499 260.091 71.1598C260.274 70.2543 260.956 69.4554 260.943 68.5414C260.922 67.4761 259.978 66.6686 258.996 66.2766C258.014 65.8846 256.936 65.7738 255.975 65.337C253.868 64.3783 252.715 62.0602 250.789 60.7734C249.926 60.2104 248.954 59.8371 247.936 59.6783C246.623 59.4668 245.279 59.538 243.996 59.887C242.712 60.2361 241.518 60.8549 240.492 61.7023C240.303 61.8557 240.109 62.0006 239.913 62.1412C239.09 62.7356 238.208 63.3215 237.707 64.2035C235.879 67.3866 240.079 67.7509 242.033 68.1919Z" fill="black"/>
</g>
<path d="M242.182 67.8915C242.678 68.0023 243.232 68.1579 243.477 68.6032C243.654 68.927 243.622 69.3339 243.794 69.6684C244.238 70.5036 245.537 70.216 246.351 70.706C247.842 71.6051 246.869 74.4089 248.354 75.3123C248.633 75.4827 248.963 75.5509 249.251 75.7064C250.506 76.3925 250.329 78.2077 250.103 79.6203C249.877 81.0328 250.146 82.9652 251.562 83.1655C252.342 83.2742 253.218 82.7586 253.874 83.1911C254.217 83.4169 254.373 83.8302 254.66 84.1306C254.858 84.3277 255.109 84.4627 255.382 84.5191C255.655 84.5755 255.939 84.5508 256.199 84.4481C256.68 84.2478 257.027 83.7897 257.528 83.6427C258.333 83.4062 259.232 84.0582 260.008 83.7578C260.783 83.4574 260.96 82.3367 260.76 81.4909C260.56 80.6451 260.151 79.7864 260.364 78.9342C260.541 78.2311 261.116 77.6942 261.367 77.0167C262.104 75.0161 259.818 72.9495 260.24 70.8594C260.423 69.9539 261.105 69.155 261.092 68.241C261.071 67.1757 260.127 66.3682 259.145 65.9762C258.163 65.5842 257.085 65.4734 256.124 65.0366C254.017 64.0779 252.864 61.7598 250.938 60.473C250.156 59.9593 249.28 59.6046 248.36 59.429C247.006 59.1693 245.612 59.2119 244.276 59.5536C242.941 59.8954 241.697 60.528 240.635 61.4061C240.447 61.5574 240.253 61.7023 240.062 61.8322C239.239 62.4267 238.357 63.0126 237.857 63.8946C236.029 67.0862 240.23 67.4527 242.182 67.8915Z" fill="#00BAFC"/>
<path d="M199.302 101.164H162.23V94.1783C171.287 89.9449 185.223 87.5672 199.302 101.164Z" fill="#00BAFC"/>
<g opacity="0.1">
<path opacity="0.1" d="M228.065 100.165V101.164H181.832V100.951C181.832 100.951 204.582 78.8 228.065 100.165Z" fill="black"/>
</g>
<path d="M228.491 100.165V101.164H182.258V100.951C182.258 100.951 205.008 78.8 228.491 100.165Z" fill="#00BAFC"/>
<path d="M169.9 73.2541C171.783 73.2541 173.309 71.7279 173.309 69.8452C173.309 67.9626 171.783 66.4364 169.9 66.4364C168.018 66.4364 166.492 67.9626 166.492 69.8452C166.492 71.7279 168.018 73.2541 169.9 73.2541Z" fill="#00BAFC"/>
<path d="M198.923 67.2673C198.533 67.2673 198.098 67.2673 197.802 67.2907C197.67 67.298 197.539 67.3246 197.414 67.3696L195.41 68.0897C197.029 68.1302 198.718 68.1174 200.378 68.1046L209.684 68.0322C210.635 68.0322 211.632 68.0151 212.422 67.9597C212.953 67.9214 213.342 67.866 213.832 67.8234C215.594 67.6657 218.162 67.6955 220.456 67.704C222.751 67.7126 225.521 67.6529 226.328 67.4228H221.402C220.872 67.4228 220.314 67.4228 219.845 67.3972C219.297 67.3653 218.963 67.3056 218.481 67.263C217.684 67.1948 216.585 67.1863 215.562 67.1821C209.948 67.1586 204.405 67.2907 198.923 67.2673Z" fill="#F4F4F4"/>
<path d="M204.437 71.3963C204.351 71.3963 204.258 71.3963 204.194 71.3963C204.165 71.3978 204.136 71.4035 204.109 71.4133L203.682 71.5689C204.034 71.5689 204.398 71.5689 204.758 71.5689L206.774 71.554C206.987 71.554 207.2 71.554 207.366 71.5391C207.481 71.5391 207.566 71.5177 207.671 71.5092C208.052 71.4751 208.608 71.4815 209.107 71.4837C209.534 71.498 209.962 71.4773 210.385 71.4219H209.32C209.205 71.4219 209.083 71.4219 208.983 71.4219C208.883 71.4219 208.792 71.4027 208.687 71.392C208.515 71.3771 208.276 71.375 208.048 71.375C206.834 71.375 205.632 71.4027 204.437 71.3963Z" fill="#F4F4F4"/>
<path d="M190.162 77.3618C190.077 77.3618 189.983 77.3618 189.919 77.3618C189.89 77.3633 189.861 77.369 189.834 77.3789L189.408 77.5344C189.759 77.5344 190.124 77.5344 190.484 77.5344L192.499 77.5195C192.712 77.5195 192.925 77.5195 193.092 77.5046C193.207 77.5046 193.292 77.4833 193.396 77.4748C193.778 77.4407 194.334 77.4471 194.832 77.4492C195.259 77.4635 195.687 77.4429 196.111 77.3874H195.045C194.93 77.3874 194.809 77.3874 194.709 77.3874C194.608 77.3874 194.517 77.3682 194.412 77.3576C194.24 77.3427 194.001 77.3405 193.773 77.3405C192.559 77.3405 191.357 77.3682 190.162 77.3618Z" fill="#F4F4F4"/>
<path d="M182.153 99.2746H180.551C180.551 99.2746 180.05 81.7529 182.153 76.3456H182.554C182.554 76.3456 181.152 96.1704 182.153 99.2746Z" fill="#00BAFC"/>
<path d="M181.052 75.4444C181.052 75.4444 179.75 79.0492 180.351 80.6514C180.351 80.6514 181.252 77.3469 182.302 76.8462C183.353 76.3456 184.454 80.6514 184.454 80.6514C184.454 80.6514 185.055 77.9477 183.954 75.7511C183.954 75.7511 186.157 76.9528 187.258 79.2559C187.258 79.2559 187.458 77.7645 184.855 74.6497C184.855 74.6497 187.158 75.2505 188.66 76.6524C188.66 76.6524 189.161 75.5509 186.056 73.7484C186.056 73.7484 186.457 72.4467 188.86 73.0475C188.86 73.0475 188.86 71.343 185.055 71.6456C185.055 71.6456 185.055 70.5441 187.558 70.7444C187.558 70.7444 187.558 69.3424 184.655 69.8431C184.655 69.8431 185.255 68.9419 185.656 68.7416C185.155 68.6953 184.655 68.8382 184.254 69.1422C184.254 69.1422 184.354 67.3397 182.852 66.6388L182.652 69.1422C182.652 69.1422 180.969 67.1586 181.35 67.54C181.45 67.6401 181.751 68.8418 181.65 69.4426C181.65 69.4426 179.946 68.0407 177.845 69.5427C177.845 69.5427 180.449 69.743 180.849 70.6442C180.849 70.6442 178.646 70.2437 178.146 70.5441C178.146 70.5441 179.85 71.1449 179.748 71.5454C179.748 71.5454 176.744 71.5454 176.339 72.6469C176.339 72.6469 179.443 73.0475 179.643 73.3479C179.643 73.3479 176.039 75.9514 175.838 76.6524C175.838 76.6524 179.543 74.4494 180.144 74.4494C180.745 74.4494 177.44 77.6452 177.641 78.4548C177.649 78.4484 180.361 75.2441 181.052 75.4444Z" fill="#00BAFC"/>
<path d="M201.914 98.6184H203.137C203.137 98.6184 203.521 85.2321 201.914 81.101H201.607C201.607 81.101 202.681 96.2428 201.914 98.6184Z" fill="#00BAFC"/>
<path d="M202.756 80.4128C202.756 80.4128 203.751 83.1676 203.29 84.3905C203.29 84.3905 202.602 81.8658 201.799 81.4845C200.996 81.1031 200.154 84.3905 200.154 84.3905C200.154 84.3905 199.696 82.326 200.538 80.6429C199.461 81.2803 198.586 82.2085 198.013 83.321C198.013 83.321 197.86 82.1726 199.85 79.8013C199.85 79.8013 198.09 80.2594 196.944 81.3311C196.944 81.3311 196.56 80.4895 198.934 79.1132C198.934 79.1132 198.627 78.1182 196.792 78.5784C196.792 78.5784 196.792 77.2787 199.698 77.5131C199.698 77.5131 199.698 76.6715 197.781 76.8249C197.781 76.8249 197.781 75.7597 199.999 76.1368C199.999 76.1368 199.541 75.4486 199.234 75.2952C199.615 75.2615 199.995 75.3709 200.299 75.602C200.299 75.602 200.222 74.2257 201.364 73.6845L201.518 75.602C201.518 75.602 202.796 74.0872 202.513 74.3791C202.33 74.8404 202.251 75.3367 202.283 75.8321C202.283 75.8321 203.582 74.7668 205.189 75.9088C205.189 75.9088 203.199 76.0622 202.894 76.7504C202.894 76.7504 204.577 76.4436 204.959 76.6737C204.959 76.6737 203.659 77.1317 203.736 77.4385C203.736 77.4385 206.03 77.4385 206.337 78.2801C206.337 78.2801 203.966 78.5869 203.812 78.8149C203.812 78.8149 206.567 80.8048 206.719 81.3396C206.719 81.3396 203.889 79.6564 203.429 79.6564C202.969 79.6564 205.493 82.1044 205.346 82.7159C205.357 82.7074 203.293 80.2637 202.756 80.4128Z" fill="#00BAFC"/>
<path d="M216.557 96.0021H217.316C217.316 96.0021 217.552 87.7121 216.557 85.1533H216.368C216.368 85.1533 217.03 94.5384 216.557 96.0021Z" fill="#00BAFC"/>
<path d="M217.079 84.7272C217.079 84.7272 217.695 86.4316 217.412 87.1901C217.412 87.1901 216.986 85.6263 216.487 85.3898C215.989 85.1533 215.469 87.1901 215.469 87.1901C215.469 87.1901 215.185 85.9118 215.705 84.8678C215.038 85.2622 214.496 85.8367 214.141 86.5254C214.141 86.5254 214.048 85.8138 215.279 84.3458C214.618 84.5297 214.004 84.853 213.479 85.2939C213.479 85.2939 213.242 84.7719 214.71 83.9197C214.71 83.9197 214.521 83.304 213.383 83.5873C213.383 83.5873 213.383 82.782 215.183 82.9247C215.183 82.9247 215.183 82.4027 213.999 82.4986C213.999 82.4986 213.999 81.836 215.373 82.0725C215.246 81.8729 215.086 81.6964 214.9 81.5505C215.137 81.5288 215.373 81.5964 215.563 81.7401C215.563 81.7401 215.516 80.8879 216.225 80.5555L216.319 81.7401C216.319 81.7401 217.116 80.8027 216.935 80.9817C216.821 81.2671 216.772 81.5742 216.792 81.8807C217.055 81.6889 217.374 81.5894 217.7 81.5979C218.026 81.6064 218.339 81.7223 218.592 81.9276C218.592 81.9276 217.361 82.0214 217.171 82.4496C217.171 82.4496 218.213 82.26 218.449 82.4027C218.449 82.4027 217.644 82.6861 217.691 82.8757C217.691 82.8757 219.112 82.8757 219.302 83.3977C219.302 83.3977 217.834 83.5873 217.738 83.7301C217.738 83.7301 219.442 84.9615 219.538 85.2939C219.538 85.2939 217.785 84.2521 217.501 84.2521C217.218 84.2521 218.78 85.769 218.686 86.1461C218.69 86.1482 217.41 84.6313 217.079 84.7272Z" fill="#00BAFC"/>
<path d="M188.86 86.6276L188.7 85.7754C188.7 85.7127 188.687 85.6508 188.662 85.5933C188.637 85.5358 188.601 85.4839 188.556 85.4409L187.816 85.0787C187.762 85.0147 187.717 84.9429 187.684 84.8657L187.697 84.8465C187.738 84.7959 187.767 84.737 187.782 84.6739C187.784 84.6576 187.784 84.6412 187.782 84.6249H187.793C187.861 84.634 187.93 84.6172 187.987 84.5777C188.043 84.5383 188.083 84.4791 188.097 84.4119V84.3927C188.084 84.4503 188.053 84.5021 188.008 84.5405C187.963 84.5788 187.907 84.6017 187.848 84.6057C187.951 84.5368 188.035 84.4436 188.094 84.3344C188.152 84.2251 188.183 84.1032 188.183 83.9794C188.183 83.9794 188.183 83.9581 188.183 83.9474C188.215 83.9274 188.243 83.9007 188.265 83.8692C188.287 83.8376 188.302 83.8018 188.308 83.7642V83.745C188.299 83.7807 188.283 83.8142 188.261 83.8435C188.239 83.8728 188.211 83.8973 188.178 83.9154C188.173 83.8425 188.158 83.7707 188.132 83.7024H188.151C188.224 83.7024 188.294 83.6734 188.345 83.6219C188.397 83.5703 188.426 83.5004 188.426 83.4275C188.426 83.4275 188.426 83.4148 188.426 83.4084C188.421 83.4775 188.39 83.5423 188.339 83.5897C188.289 83.6371 188.222 83.6637 188.153 83.664H188.119V83.6512C188.201 83.6267 188.274 83.5794 188.329 83.5149C188.385 83.4504 188.422 83.3713 188.434 83.2869C188.434 83.2869 188.434 83.2741 188.434 83.2678C188.43 83.3211 188.411 83.3723 188.379 83.4148C188.382 83.3465 188.36 83.2793 188.317 83.2264C188.274 83.1734 188.213 83.1385 188.145 83.1284C188.077 83.1182 188.008 83.1337 187.952 83.1717C187.895 83.2097 187.854 83.2675 187.838 83.3338L187.789 83.3061C187.804 83.2512 187.836 83.2025 187.88 83.1666C187.924 83.1307 187.979 83.1095 188.036 83.1058H188.017C187.959 83.1054 187.903 83.123 187.856 83.1563C187.809 83.1895 187.773 83.2367 187.754 83.2912C187.59 83.2146 187.403 83.2001 187.228 83.2502C187.054 83.3003 186.903 83.4117 186.804 83.5639C186.747 83.6065 186.672 83.6683 186.674 83.7216C186.65 83.7463 186.627 83.7734 186.608 83.8025C186.527 83.9804 186.498 84.1775 186.523 84.3714C186.535 84.4677 186.523 84.5655 186.489 84.6564C186.455 84.7473 186.399 84.8286 186.327 84.8934C186.359 84.9066 186.393 84.9134 186.427 84.9134C186.462 84.9134 186.496 84.9066 186.527 84.8934C186.591 84.8666 186.65 84.8315 186.704 84.789C186.755 84.7583 186.797 84.7169 186.83 84.6675V84.6569C186.865 84.6806 186.903 84.7006 186.943 84.7165C186.958 84.8444 186.962 84.9914 186.904 85.0404L186.915 85.0169C186.778 85.1203 186.607 85.1689 186.436 85.1533C186.332 85.1591 186.232 85.1916 186.145 85.2476C186.058 85.3036 185.987 85.3812 185.939 85.4729L185.707 86.4423V86.4593V86.4764C185.711 86.4894 185.718 86.5013 185.727 86.5107C185.737 86.5201 185.749 86.5266 185.762 86.5296L185.835 86.5488C185.846 86.7144 185.829 86.8807 185.786 87.041C185.737 87.2796 185.709 87.5219 185.703 87.7653C185.72 87.8868 185.75 88.5196 185.765 88.82C185.739 88.9225 185.718 89.0264 185.703 89.131L185.36 91.1891C185.36 91.1891 185.104 92.8361 185.117 93.3346L185.072 93.6222C185.072 93.6222 184.375 94.4958 184.58 94.6193C184.784 94.7429 185.1 94.7962 185.4 94.3317C185.441 94.2222 185.507 94.1238 185.592 94.0441C185.626 94.0146 185.653 93.9773 185.669 93.9354C185.686 93.8935 185.692 93.8482 185.688 93.8033L185.667 93.5903L185.703 93.6031H185.724C185.724 93.6031 186.067 92.476 186.029 91.6856C186.029 91.6856 186.668 89.4229 187.147 89.0671V89.0522L187.192 89.0309L187.294 91.2232L187.19 93.6393L187.166 93.7842C187.166 93.7842 186.47 94.6577 186.674 94.7813C186.879 94.9048 187.194 94.9581 187.495 94.4936C187.535 94.3842 187.601 94.2857 187.686 94.206C187.72 94.1765 187.747 94.1392 187.764 94.0973C187.78 94.0554 187.787 94.0101 187.782 93.9653L187.75 93.6457C187.87 93.2387 188.176 92.0669 188.051 91.3873L188.264 89.9428C188.477 89.702 188.449 89.0905 188.449 89.0905C188.617 88.739 188.662 87.3605 188.662 87.3605L188.705 86.6788C188.737 86.6761 188.769 86.6761 188.801 86.6788H188.822H188.835V86.666C188.841 86.6606 188.846 86.6541 188.85 86.6468H188.862V86.6298L188.86 86.6276ZM188.264 88.0125C188.245 87.9656 188.223 87.9187 188.2 87.8719H188.183V87.8548C188.182 87.8492 188.182 87.8434 188.183 87.8378V87.8207C188.193 87.7979 188.201 87.7744 188.208 87.7504C188.236 87.7064 188.25 87.6553 188.249 87.6034C188.274 87.7383 188.279 87.8761 188.264 88.0125ZM188.2 87.4287L188.157 86.9728L188.17 86.9366L188.227 87.5161L188.2 87.4287ZM186.18 87.4905C186.165 87.5073 186.154 87.527 186.148 87.5482C186.141 87.5695 186.139 87.5919 186.142 87.6141C186.142 87.6141 186.142 87.6141 186.142 87.629C186.142 87.6751 186.148 87.7209 186.161 87.7653L186.095 88.0508V87.5054C186.139 87.4479 186.177 87.3866 186.21 87.3222C186.217 87.38 186.206 87.4385 186.18 87.4905Z" fill="url(#paint3_linear_13_165)"/>
<path d="M186.61 83.9708C186.532 84.142 186.503 84.3317 186.527 84.5184C186.538 84.6112 186.527 84.7054 186.494 84.793C186.461 84.8805 186.407 84.9588 186.338 85.0212C186.368 85.034 186.401 85.0406 186.435 85.0406C186.468 85.0406 186.501 85.034 186.532 85.0212C186.593 84.9955 186.65 84.9618 186.702 84.921C186.751 84.8915 186.792 84.8515 186.823 84.8039C186.853 84.7302 186.862 84.6501 186.851 84.5716C186.851 84.4324 186.864 84.2934 186.887 84.1562C186.9 84.071 186.981 83.8387 186.887 83.794C186.794 83.7493 186.651 83.9069 186.61 83.9708Z" fill="#72351C"/>
<path d="M185.202 93.0278L185.136 93.4539C185.136 93.4539 184.465 94.3061 184.663 94.4148C184.861 94.5235 185.164 94.5852 185.453 94.1378C185.492 94.0326 185.555 93.9377 185.637 93.8609C185.669 93.8323 185.695 93.7964 185.711 93.7559C185.727 93.7155 185.733 93.6718 185.728 93.6286L185.662 92.9788L185.202 93.0278Z" fill="#333333"/>
<path d="M187.222 93.1961L187.156 93.6222C187.156 93.6222 186.485 94.4745 186.683 94.5831C186.881 94.6918 187.183 94.7536 187.473 94.3061C187.512 94.2009 187.575 94.1061 187.656 94.0292C187.689 94.0007 187.715 93.9647 187.731 93.9243C187.747 93.8838 187.753 93.8402 187.748 93.7969L187.682 93.1471L187.222 93.1961Z" fill="#333333"/>
<path d="M186.176 88.102C186.176 88.102 185.86 88.3299 185.75 89.1225L185.419 91.1061C185.419 91.1061 185.14 92.9042 185.191 93.2494L185.75 93.4411C185.75 93.4411 186.08 92.3546 186.044 91.5982C186.044 91.5982 186.715 89.2077 187.186 89.0416L187.286 91.1529L187.179 93.5285L187.657 93.6244C187.657 93.6244 188.14 92.1117 187.987 91.3106L188.236 89.6061C188.236 89.6061 188.522 88.6964 188.125 87.9017L186.176 88.102Z" fill="#4D8AF0"/>
<g opacity="0.1">
<path opacity="0.1" d="M187.137 89.0735V89.0373C186.666 89.2056 185.995 91.594 185.995 91.594C185.983 92.2122 185.886 92.8259 185.707 93.4177L185.767 93.439C185.767 93.439 186.097 92.3524 186.061 91.5961C186.059 91.5982 186.672 89.4251 187.137 89.0735Z" fill="black"/>
<path opacity="0.1" d="M188.144 87.9124H188.08C188.31 88.4464 188.347 89.0432 188.187 89.6019L187.938 91.3063C188.085 92.0648 187.656 93.4603 187.612 93.6073L187.674 93.6201C187.674 93.6201 188.157 92.1074 188.004 91.3063L188.253 89.6019C188.253 89.6019 188.541 88.6964 188.144 87.9124Z" fill="black"/>
</g>
<path d="M185.748 86.5488C185.747 86.5651 185.752 86.5811 185.763 86.5939C185.773 86.6067 185.787 86.6156 185.803 86.6191C185.959 86.6583 186.104 86.731 186.229 86.8322C186.463 87.0154 185.98 86.4657 185.98 86.4657L185.818 86.5019L185.752 86.5616L185.748 86.5488Z" fill="#F55F44"/>
<path opacity="0.1" d="M185.748 86.5488C185.747 86.5651 185.752 86.5811 185.763 86.5939C185.773 86.6067 185.787 86.6156 185.803 86.6191C185.959 86.6583 186.104 86.731 186.229 86.8322C186.463 87.0154 185.98 86.4657 185.98 86.4657L185.818 86.5019L185.752 86.5616L185.748 86.5488Z" fill="black"/>
<path d="M188.053 87.0346C188.25 86.8946 188.478 86.8047 188.717 86.7725C188.734 86.7725 188.75 86.766 188.761 86.7544C188.773 86.7428 188.779 86.7271 188.779 86.7107C188.779 86.7107 188.221 86.4913 188.053 87.0346Z" fill="#F55F44"/>
<path opacity="0.1" d="M188.779 86.7086C188.779 86.7086 188.221 86.4955 188.053 87.0324C188.053 87.0324 188.464 86.7171 188.749 86.7682" fill="black"/>
<path d="M187.405 84.8678C187.806 84.8678 188.132 84.5425 188.132 84.1413C188.132 83.74 187.806 83.4147 187.405 83.4147C187.004 83.4147 186.679 83.74 186.679 84.1413C186.679 84.5425 187.004 84.8678 187.405 84.8678Z" fill="#72351C"/>
<path d="M186.904 84.6505C186.904 84.6505 187.007 85.0766 186.904 85.1639C186.802 85.2513 186.595 85.4132 186.751 85.5389C186.907 85.6646 187.463 85.8777 187.648 85.7733C187.833 85.6689 188.044 85.7008 187.993 85.4878C187.942 85.2747 187.537 85.3195 187.531 84.2606L186.904 84.6505Z" fill="#FDB797"/>
<path opacity="0.1" d="M185.875 86.421C185.891 86.652 185.876 86.8841 185.831 87.1113C185.784 87.3407 185.756 87.5738 185.75 87.808C185.771 87.9614 185.816 88.9755 185.816 88.9755C185.816 88.9755 185.735 89.8639 186.167 89.783C186.6 89.702 186.101 88.7688 186.101 88.7688L186.122 87.5565C186.24 87.3972 186.313 87.2099 186.336 87.0133C186.368 86.7214 185.875 86.421 185.875 86.421Z" fill="black"/>
<path d="M185.869 86.421C185.884 86.652 185.869 86.8841 185.824 87.1113C185.777 87.3407 185.75 87.5738 185.743 87.808C185.765 87.9614 185.809 88.9755 185.809 88.9755C185.809 88.9755 185.728 89.8639 186.161 89.783C186.593 89.702 186.095 88.7688 186.095 88.7688L186.116 87.5565C186.233 87.3972 186.307 87.2099 186.329 87.0133C186.359 86.7214 185.869 86.421 185.869 86.421Z" fill="#FDB797"/>
<path opacity="0.1" d="M188.636 86.487L188.577 87.4351C188.577 87.4351 188.541 88.7646 188.379 89.1012C188.379 89.1012 188.423 90.0344 187.989 90.011C187.554 89.9875 188.061 88.9904 188.061 88.9904C188.061 88.9904 188.293 87.9528 188.174 87.6247L188.061 86.487H188.636Z" fill="black"/>
<path d="M188.643 86.487L188.583 87.4351C188.583 87.4351 188.547 88.7646 188.385 89.1012C188.385 89.1012 188.43 90.0344 187.995 90.011C187.561 89.9875 188.068 88.9904 188.068 88.9904C188.068 88.9904 188.3 87.9528 188.181 87.6247L188.068 86.487H188.643Z" fill="#FDB797"/>
<path opacity="0.1" d="M187.235 85.5687C187.235 85.5687 187.586 85.7307 187.778 85.2492L188.492 85.5986C188.536 85.6403 188.57 85.6905 188.594 85.7462C188.618 85.8019 188.63 85.8619 188.63 85.9224L188.784 86.7448C188.784 86.7448 188.262 86.568 188.1 87.0537L188.144 87.5161C188.178 87.6302 188.17 87.7527 188.121 87.8612C188.117 87.871 188.114 87.8815 188.114 87.8921C188.114 87.9028 188.117 87.9133 188.121 87.923C188.132 87.9567 188.134 87.9924 188.129 88.0272C188.123 88.0621 188.109 88.0951 188.089 88.1237C188.068 88.1523 188.041 88.1756 188.009 88.1919C187.978 88.2081 187.943 88.2167 187.908 88.217C187.716 88.2192 187.525 88.2342 187.335 88.2618C187.181 88.3065 186.717 88.1744 186.564 88.2618C186.41 88.3491 186.086 88.1957 186.086 88.1957L186.174 87.8207C186.174 87.8207 186.114 87.6375 186.189 87.5715C186.263 87.5054 186.218 86.9323 186.152 86.7704C186.152 86.7704 185.888 86.5211 185.726 86.5573L185.939 85.6092C185.985 85.5208 186.053 85.4458 186.137 85.3917C186.221 85.3375 186.317 85.306 186.416 85.3003C186.582 85.3151 186.746 85.268 186.879 85.1682C186.879 85.1682 186.719 85.5176 187.235 85.5687Z" fill="black"/>
<path opacity="0.1" d="M187.271 85.5517C187.367 85.5773 187.622 85.605 187.776 85.2193L188.49 85.5687C188.533 85.6105 188.568 85.6607 188.592 85.7164C188.616 85.7721 188.628 85.832 188.628 85.8926L188.781 86.715C188.781 86.715 188.259 86.5381 188.098 87.0239L188.142 87.4862L188.172 87.5779C188.185 87.617 188.188 87.6586 188.182 87.6994C188.176 87.7401 188.16 87.7788 188.136 87.8122C188.126 87.8237 188.119 87.8377 188.116 87.8527C188.114 87.8678 188.115 87.8832 188.121 87.8974C188.132 87.9311 188.134 87.9668 188.129 88.0017C188.123 88.0365 188.109 88.0696 188.089 88.0981C188.068 88.1267 188.041 88.1501 188.009 88.1663C187.978 88.1825 187.943 88.1911 187.908 88.1915C187.716 88.1937 187.525 88.2086 187.335 88.2362C187.181 88.2809 186.717 88.1488 186.564 88.2362C186.41 88.3236 186.086 88.1701 186.086 88.1701L186.174 87.7952C186.174 87.7952 186.114 87.6119 186.189 87.5459C186.263 87.4798 186.218 86.9067 186.152 86.7448C186.152 86.7448 185.888 86.4955 185.726 86.5318L185.939 85.5837C185.985 85.4952 186.053 85.4203 186.137 85.3661C186.221 85.312 186.317 85.2805 186.416 85.2747C186.582 85.2895 186.746 85.2424 186.879 85.1426C186.879 85.1426 186.706 85.458 187.16 85.5261L187.271 85.5517Z" fill="black"/>
<path d="M187.271 85.5666C187.367 85.5922 187.622 85.6199 187.776 85.2342L188.49 85.5837C188.533 85.6254 188.568 85.6756 188.592 85.7313C188.616 85.787 188.628 85.8469 188.628 85.9075L188.781 86.7299C188.781 86.7299 188.259 86.5531 188.097 87.0388L188.142 87.5012C188.176 87.6153 188.168 87.7377 188.119 87.8463C188.115 87.856 188.112 87.8666 188.112 87.8772C188.112 87.8878 188.115 87.8984 188.119 87.9081C188.129 87.9418 188.132 87.9775 188.126 88.0123C188.121 88.0472 188.107 88.0802 188.086 88.1088C188.066 88.1374 188.039 88.1607 188.007 88.1769C187.976 88.1931 187.941 88.2018 187.906 88.2021C187.714 88.2043 187.522 88.2193 187.333 88.2469C187.179 88.2916 186.715 88.1595 186.561 88.2469C186.408 88.3342 186.084 88.1808 186.084 88.1808L186.171 87.8058C186.171 87.8058 186.112 87.6226 186.186 87.5566C186.261 87.4905 186.216 86.9174 186.15 86.7555C186.15 86.7555 185.886 86.5062 185.724 86.5424L185.937 85.5943C185.983 85.5059 186.051 85.4309 186.135 85.3768C186.219 85.3226 186.315 85.2911 186.414 85.2854C186.58 85.3002 186.744 85.2531 186.877 85.1533C186.877 85.1533 186.704 85.4686 187.158 85.5368L187.271 85.5666Z" fill="#F55F44"/>
<path opacity="0.1" d="M187.541 84.2989L186.917 84.6888C186.933 84.7592 186.945 84.8303 186.953 84.9019C187.025 84.9302 187.1 84.9447 187.177 84.9445C187.33 84.9338 187.473 84.8688 187.582 84.7613C187.554 84.6088 187.54 84.454 187.541 84.2989Z" fill="black"/>
<path d="M187.164 84.8976C187.497 84.8976 187.767 84.6277 187.767 84.2947C187.767 83.9617 187.497 83.6917 187.164 83.6917C186.831 83.6917 186.561 83.9617 186.561 84.2947C186.561 84.6277 186.831 84.8976 187.164 84.8976Z" fill="#FDB797"/>
<path d="M188.053 83.8323C188.199 83.8323 188.317 83.7141 188.317 83.5682C188.317 83.4222 188.199 83.304 188.053 83.304C187.907 83.304 187.789 83.4222 187.789 83.5682C187.789 83.7141 187.907 83.8323 188.053 83.8323Z" fill="#72351C"/>
<path d="M188.104 83.8473C188.037 83.8474 187.973 83.8222 187.924 83.7768C187.875 83.7313 187.845 83.6689 187.84 83.6022C187.84 83.6022 187.84 83.615 187.84 83.6214C187.84 83.6915 187.868 83.7587 187.917 83.8082C187.967 83.8578 188.034 83.8856 188.104 83.8856C188.174 83.8856 188.241 83.8578 188.291 83.8082C188.34 83.7587 188.368 83.6915 188.368 83.6214C188.368 83.6214 188.368 83.6086 188.368 83.6022C188.363 83.6689 188.333 83.7313 188.284 83.7768C188.235 83.8222 188.171 83.8474 188.104 83.8473Z" fill="#72351C"/>
<path d="M187.953 84.0987C187.887 84.0862 187.829 84.0494 187.789 83.9956C187.75 83.9419 187.732 83.8752 187.74 83.8089V83.8259C187.727 83.8949 187.742 83.966 187.782 84.0238C187.822 84.0815 187.883 84.1211 187.952 84.1338C188.02 84.1465 188.092 84.1313 188.149 84.0916C188.207 84.0518 188.247 83.9908 188.259 83.9218V83.9026C188.243 83.9684 188.202 84.0255 188.145 84.0619C188.088 84.0984 188.019 84.1116 187.953 84.0987Z" fill="#72351C"/>
<path d="M187.748 84.7378C187.683 84.7254 187.624 84.6885 187.585 84.6348C187.545 84.5811 187.527 84.5143 187.535 84.4481V84.4651C187.522 84.5341 187.538 84.6052 187.577 84.663C187.617 84.7207 187.678 84.7603 187.747 84.773C187.816 84.7857 187.887 84.7705 187.945 84.7308C188.003 84.691 188.042 84.6299 188.055 84.561V84.5418C188.039 84.6076 187.998 84.6646 187.941 84.7011C187.884 84.7376 187.815 84.7507 187.748 84.7378Z" fill="#72351C"/>
<path d="M188.104 83.7066C188.037 83.7068 187.972 83.6813 187.923 83.6354C187.874 83.5895 187.844 83.5266 187.84 83.4595C187.84 83.4595 187.84 83.4723 187.84 83.4787C187.84 83.5487 187.868 83.6159 187.917 83.6655C187.967 83.715 188.034 83.7429 188.104 83.7429C188.174 83.7429 188.241 83.715 188.291 83.6655C188.34 83.6159 188.368 83.5487 188.368 83.4787C188.368 83.4787 188.368 83.4659 188.368 83.4595C188.364 83.5266 188.334 83.5895 188.285 83.6354C188.236 83.6813 188.171 83.7068 188.104 83.7066Z" fill="#72351C"/>
<path d="M187.735 83.5639C187.736 83.4967 187.762 83.4322 187.808 83.3835C187.854 83.3348 187.918 83.3056 187.985 83.3018H187.965C187.895 83.3018 187.828 83.3297 187.779 83.3792C187.729 83.4288 187.701 83.496 187.701 83.566C187.701 83.6361 187.729 83.7033 187.779 83.7528C187.828 83.8024 187.895 83.8302 187.965 83.8302H187.985C187.917 83.8264 187.853 83.7966 187.807 83.747C187.76 83.6974 187.735 83.6318 187.735 83.5639Z" fill="#72351C"/>
<path opacity="0.1" d="M188.002 86.0566C188.029 86.1873 188.029 86.3223 188.002 86.4529C188.002 86.4529 187.965 86.7981 188.023 86.8577" fill="black"/>
<path opacity="0.1" d="M186.216 86.1376C186.244 86.2682 186.244 86.4033 186.216 86.5339C186.216 86.5339 186.18 86.879 186.238 86.9387" fill="black"/>
<path opacity="0.1" d="M186.201 87.5544C186.258 87.5749 186.321 87.5749 186.378 87.5544C186.448 87.5333 186.522 87.5333 186.591 87.5544" fill="black"/>
<path opacity="0.1" d="M186.291 87.0346C186.498 87.0445 186.706 87.0119 186.9 86.9387C186.9 86.9387 187.65 87.1219 187.863 86.9898" fill="black"/>
<path d="M186.065 90.2006H185.888C185.809 90.2006 185.745 90.2645 185.745 90.3433C185.745 90.4221 185.809 90.486 185.888 90.486H186.065C186.144 90.486 186.208 90.4221 186.208 90.3433C186.208 90.2645 186.144 90.2006 186.065 90.2006Z" fill="#FDB797"/>
<path d="M185.747 90.2773L185.995 90.2666L186.208 90.3007H186.133L185.747 90.2773Z" fill="#F0E4E4"/>
<path d="M187.414 89.082H187.661L187.874 89.1033H187.799L187.414 89.082Z" fill="#F0E4E4"/>
<path d="M187.414 89.1332H187.661L187.874 89.1545H187.799L187.414 89.1332Z" fill="#F0E4E4"/>
<path d="M187.414 89.1864H187.661L187.874 89.2077H187.799L187.414 89.1864Z" fill="#F0E4E4"/>
<path d="M187.414 89.2375H187.661L187.874 89.2588H187.799L187.414 89.2375Z" fill="#F0E4E4"/>
<path d="M185.747 90.4754H185.995L186.208 90.501H186.133L185.747 90.4754Z" fill="#F0E4E4"/>
<path d="M185.747 90.4498H185.995L186.208 90.4754H186.133L185.747 90.4498Z" fill="#F0E4E4"/>
<path d="M185.747 90.4243H185.995L186.208 90.4498H186.133L185.747 90.4243Z" fill="#F0E4E4"/>
<path d="M185.747 90.3987H185.995L186.208 90.4243H186.133L185.747 90.3987Z" fill="#F0E4E4"/>
<path d="M185.747 90.2389L185.995 90.2283L186.208 90.2624H186.133L185.747 90.2389Z" fill="#F0E4E4"/>
<path d="M185.747 90.1942L185.995 90.1835L186.208 90.2176H186.133L185.747 90.1942Z" fill="#F0E4E4"/>
<path opacity="0.1" d="M187.267 83.909C187.243 84.1342 187.272 84.3618 187.352 84.5738C187.391 84.6767 187.409 84.7867 187.403 84.8968C187.398 85.0068 187.369 85.1145 187.32 85.213C187.353 85.2205 187.387 85.2202 187.419 85.212C187.452 85.2039 187.482 85.1881 187.507 85.1661C187.56 85.1197 187.606 85.0659 187.644 85.0063C187.683 84.9577 187.712 84.9009 187.727 84.8401C187.733 84.7444 187.719 84.6484 187.684 84.5589C187.643 84.3957 187.613 84.2298 187.595 84.0624C187.582 83.9602 187.595 83.6662 187.48 83.6363C187.365 83.6065 187.288 83.8238 187.267 83.909Z" fill="black"/>
<path d="M187.282 83.9026C187.258 84.1278 187.287 84.3554 187.367 84.5674C187.406 84.6703 187.424 84.7803 187.418 84.8903C187.413 85.0004 187.384 85.1081 187.335 85.2066C187.368 85.2141 187.402 85.2137 187.434 85.2056C187.467 85.1975 187.497 85.1817 187.522 85.1597C187.575 85.1133 187.621 85.0595 187.659 84.9999C187.698 84.9513 187.727 84.8945 187.742 84.8337C187.748 84.738 187.734 84.642 187.699 84.5525C187.658 84.3893 187.628 84.2234 187.61 84.056C187.597 83.9538 187.61 83.6598 187.495 83.6299C187.38 83.6001 187.303 83.8153 187.282 83.9026Z" fill="#72351C"/>
<path opacity="0.1" d="M187.022 84.0603C187.073 84.1136 187.083 84.1924 187.126 84.2521C187.164 84.2927 187.21 84.3244 187.262 84.3451C187.313 84.3657 187.369 84.3747 187.424 84.3714C187.455 84.3698 187.485 84.3764 187.512 84.3905C187.558 84.4204 187.561 84.4885 187.59 84.5354C187.606 84.5525 187.626 84.5661 187.647 84.5755C187.669 84.5848 187.692 84.5896 187.715 84.5896C187.738 84.5896 187.762 84.5848 187.783 84.5755C187.804 84.5661 187.824 84.5525 187.84 84.5354C187.901 84.4619 187.935 84.3692 187.936 84.2734C187.946 84.1678 187.946 84.0615 187.936 83.9559C187.933 83.835 187.885 83.7195 187.801 83.6321C187.731 83.5803 187.651 83.5453 187.565 83.5298C187.448 83.4885 187.322 83.479 187.201 83.5021C187.141 83.5218 187.086 83.5498 187.034 83.5852C186.962 83.6321 186.891 83.6796 186.821 83.7279C186.742 83.7833 186.593 83.8941 186.738 83.9538C186.83 83.9964 186.945 83.9772 187.022 84.0603Z" fill="black"/>
<path d="M187.036 84.0518C187.088 84.105 187.098 84.1839 187.141 84.2435C187.179 84.2841 187.225 84.3159 187.277 84.3365C187.328 84.3572 187.384 84.3661 187.439 84.3628C187.469 84.3612 187.5 84.3679 187.527 84.382C187.573 84.4118 187.576 84.48 187.605 84.5269C187.621 84.544 187.641 84.5576 187.662 84.5669C187.683 84.5763 187.707 84.5811 187.73 84.5811C187.753 84.5811 187.776 84.5763 187.798 84.5669C187.819 84.5576 187.839 84.544 187.855 84.5269C187.916 84.4534 187.95 84.3607 187.95 84.2648C187.961 84.1593 187.961 84.053 187.95 83.9474C187.948 83.8265 187.9 83.711 187.816 83.6235C187.746 83.5718 187.665 83.5368 187.58 83.5213C187.463 83.48 187.337 83.4704 187.215 83.4936C187.156 83.5133 187.1 83.5412 187.049 83.5767C186.977 83.6235 186.906 83.6711 186.836 83.7194C186.757 83.7748 186.608 83.8856 186.753 83.9453C186.845 83.9879 186.966 83.9708 187.036 84.0518Z" fill="#72351C"/>
<path d="M187.428 89.082H187.676L187.889 89.1033H187.818L187.428 89.082Z" fill="#F0E4E4"/>
<path d="M187.428 89.1332H187.676L187.889 89.1545H187.818L187.428 89.1332Z" fill="#F0E4E4"/>
<path d="M187.428 89.1864H187.676L187.889 89.2077H187.818L187.428 89.1864Z" fill="#F0E4E4"/>
<path d="M187.428 89.2375H187.676L187.889 89.2588H187.818L187.428 89.2375Z" fill="#F0E4E4"/>
<path d="M187.322 92.0648H187.569L187.782 92.0861H187.708L187.322 92.0648Z" fill="#F0E4E4"/>
<path d="M187.322 92.1181H187.569L187.782 92.1394H187.708L187.322 92.1181Z" fill="#F0E4E4"/>
<path d="M187.322 92.1692H187.569L187.782 92.1905H187.708L187.322 92.1692Z" fill="#F0E4E4"/>
<path d="M187.322 92.2203H187.569L187.782 92.2416H187.708L187.322 92.2203Z" fill="#F0E4E4"/>
</g>
<path d="M105.148 176.723H108.205L103.352 191H100.051L95.207 176.723H98.2637L100.949 185.219C101.099 185.72 101.252 186.306 101.408 186.977C101.571 187.641 101.672 188.103 101.711 188.363C101.783 187.764 102.027 186.716 102.443 185.219L105.148 176.723ZM114.299 181.996C113.667 181.996 113.173 182.198 112.814 182.602C112.456 182.999 112.251 183.565 112.199 184.301H116.379C116.366 183.565 116.174 182.999 115.803 182.602C115.432 182.198 114.93 181.996 114.299 181.996ZM114.719 191.195C112.961 191.195 111.587 190.71 110.598 189.74C109.608 188.77 109.113 187.396 109.113 185.619C109.113 183.79 109.569 182.377 110.48 181.381C111.398 180.378 112.665 179.877 114.279 179.877C115.822 179.877 117.023 180.316 117.883 181.195C118.742 182.074 119.172 183.288 119.172 184.838V186.283H112.131C112.163 187.13 112.414 187.79 112.883 188.266C113.352 188.741 114.009 188.979 114.855 188.979C115.513 188.979 116.135 188.91 116.721 188.773C117.307 188.637 117.919 188.419 118.557 188.119V190.424C118.036 190.684 117.479 190.876 116.887 191C116.294 191.13 115.572 191.195 114.719 191.195ZM127.668 179.877C128.957 179.877 129.966 180.382 130.695 181.391C131.424 182.393 131.789 183.77 131.789 185.521C131.789 187.325 131.411 188.721 130.656 189.711C129.908 190.701 128.885 191.195 127.59 191.195C126.307 191.195 125.301 190.73 124.572 189.799H124.367L123.869 191H121.594V175.805H124.572V179.34C124.572 179.789 124.533 180.508 124.455 181.498H124.572C125.269 180.417 126.301 179.877 127.668 179.877ZM126.711 182.26C125.975 182.26 125.438 182.488 125.1 182.943C124.761 183.393 124.585 184.138 124.572 185.18V185.502C124.572 186.674 124.745 187.514 125.09 188.021C125.441 188.529 125.995 188.783 126.75 188.783C127.362 188.783 127.847 188.503 128.205 187.943C128.57 187.377 128.752 186.557 128.752 185.482C128.752 184.408 128.57 183.604 128.205 183.07C127.84 182.53 127.342 182.26 126.711 182.26ZM141.867 187.758C141.867 188.878 141.477 189.73 140.695 190.316C139.921 190.902 138.758 191.195 137.209 191.195C136.415 191.195 135.738 191.14 135.178 191.029C134.618 190.925 134.094 190.769 133.605 190.561V188.1C134.159 188.36 134.781 188.578 135.471 188.754C136.167 188.93 136.779 189.018 137.307 189.018C138.387 189.018 138.928 188.705 138.928 188.08C138.928 187.846 138.856 187.657 138.713 187.514C138.57 187.364 138.322 187.198 137.971 187.016C137.619 186.827 137.15 186.609 136.564 186.361C135.725 186.01 135.106 185.684 134.709 185.385C134.318 185.085 134.032 184.743 133.85 184.359C133.674 183.969 133.586 183.49 133.586 182.924C133.586 181.954 133.96 181.205 134.709 180.678C135.464 180.144 136.532 179.877 137.912 179.877C139.227 179.877 140.507 180.163 141.75 180.736L140.852 182.885C140.305 182.65 139.794 182.458 139.318 182.309C138.843 182.159 138.358 182.084 137.863 182.084C136.984 182.084 136.545 182.322 136.545 182.797C136.545 183.064 136.685 183.295 136.965 183.49C137.251 183.686 137.873 183.975 138.83 184.359C139.683 184.704 140.308 185.027 140.705 185.326C141.102 185.626 141.395 185.971 141.584 186.361C141.773 186.752 141.867 187.217 141.867 187.758ZM151.125 191L150.549 189.516H150.471C149.969 190.147 149.452 190.587 148.918 190.834C148.391 191.075 147.701 191.195 146.848 191.195C145.799 191.195 144.973 190.896 144.367 190.297C143.768 189.698 143.469 188.845 143.469 187.738C143.469 186.579 143.872 185.727 144.68 185.18C145.493 184.626 146.717 184.32 148.352 184.262L150.246 184.203V183.725C150.246 182.618 149.68 182.064 148.547 182.064C147.674 182.064 146.649 182.328 145.471 182.855L144.484 180.844C145.741 180.186 147.134 179.857 148.664 179.857C150.129 179.857 151.252 180.176 152.033 180.814C152.814 181.452 153.205 182.423 153.205 183.725V191H151.125ZM150.246 185.941L149.094 185.98C148.228 186.007 147.583 186.163 147.16 186.449C146.737 186.736 146.525 187.172 146.525 187.758C146.525 188.598 147.007 189.018 147.971 189.018C148.661 189.018 149.211 188.819 149.621 188.422C150.038 188.025 150.246 187.497 150.246 186.84V185.941ZM154.719 180.082H157.98L160.041 186.225C160.217 186.758 160.337 187.39 160.402 188.119H160.461C160.533 187.449 160.673 186.817 160.881 186.225L162.902 180.082H166.096L161.477 192.396C161.053 193.536 160.448 194.389 159.66 194.955C158.879 195.521 157.964 195.805 156.916 195.805C156.402 195.805 155.897 195.749 155.402 195.639V193.275C155.76 193.36 156.151 193.402 156.574 193.402C157.102 193.402 157.561 193.24 157.951 192.914C158.348 192.595 158.658 192.11 158.879 191.459L159.055 190.922L154.719 180.082ZM172.268 188.822C172.788 188.822 173.413 188.708 174.143 188.48V190.697C173.4 191.029 172.489 191.195 171.408 191.195C170.217 191.195 169.348 190.896 168.801 190.297C168.26 189.691 167.99 188.786 167.99 187.582V182.318H166.564V181.059L168.205 180.062L169.064 177.758H170.969V180.082H174.025V182.318H170.969V187.582C170.969 188.005 171.086 188.318 171.32 188.52C171.561 188.721 171.877 188.822 172.268 188.822ZM186.154 188.822C186.675 188.822 187.3 188.708 188.029 188.48V190.697C187.287 191.029 186.376 191.195 185.295 191.195C184.104 191.195 183.234 190.896 182.688 190.297C182.147 189.691 181.877 188.786 181.877 187.582V182.318H180.451V181.059L182.092 180.062L182.951 177.758H184.855V180.082H187.912V182.318H184.855V187.582C184.855 188.005 184.973 188.318 185.207 188.52C185.448 188.721 185.764 188.822 186.154 188.822ZM197.98 191L197.58 189.604H197.424C197.105 190.111 196.652 190.505 196.066 190.785C195.48 191.059 194.813 191.195 194.064 191.195C192.782 191.195 191.815 190.854 191.164 190.17C190.513 189.48 190.188 188.49 190.188 187.201V180.082H193.166V186.459C193.166 187.247 193.306 187.839 193.586 188.236C193.866 188.627 194.312 188.822 194.924 188.822C195.757 188.822 196.359 188.546 196.73 187.992C197.102 187.432 197.287 186.508 197.287 185.219V180.082H200.266V191H197.98ZM210.988 191H202.365V189.242L207.424 182.357H202.668V180.082H210.812V182.016L205.891 188.725H210.988V191ZM213.029 177.26C213.029 176.29 213.57 175.805 214.65 175.805C215.731 175.805 216.271 176.29 216.271 177.26C216.271 177.722 216.135 178.083 215.861 178.344C215.594 178.598 215.191 178.725 214.65 178.725C213.57 178.725 213.029 178.236 213.029 177.26ZM216.135 191H213.156V180.082H216.135V191ZM226.887 187.758C226.887 188.878 226.496 189.73 225.715 190.316C224.94 190.902 223.778 191.195 222.229 191.195C221.434 191.195 220.757 191.14 220.197 191.029C219.637 190.925 219.113 190.769 218.625 190.561V188.1C219.178 188.36 219.8 188.578 220.49 188.754C221.187 188.93 221.799 189.018 222.326 189.018C223.407 189.018 223.947 188.705 223.947 188.08C223.947 187.846 223.876 187.657 223.732 187.514C223.589 187.364 223.342 187.198 222.99 187.016C222.639 186.827 222.17 186.609 221.584 186.361C220.744 186.01 220.126 185.684 219.729 185.385C219.338 185.085 219.051 184.743 218.869 184.359C218.693 183.969 218.605 183.49 218.605 182.924C218.605 181.954 218.98 181.205 219.729 180.678C220.484 180.144 221.551 179.877 222.932 179.877C224.247 179.877 225.526 180.163 226.77 180.736L225.871 182.885C225.324 182.65 224.813 182.458 224.338 182.309C223.863 182.159 223.378 182.084 222.883 182.084C222.004 182.084 221.564 182.322 221.564 182.797C221.564 183.064 221.704 183.295 221.984 183.49C222.271 183.686 222.893 183.975 223.85 184.359C224.702 184.704 225.327 185.027 225.725 185.326C226.122 185.626 226.415 185.971 226.604 186.361C226.792 186.752 226.887 187.217 226.887 187.758ZM239.289 191H236.311V184.623C236.311 183.048 235.725 182.26 234.553 182.26C233.719 182.26 233.117 182.543 232.746 183.109C232.375 183.676 232.189 184.594 232.189 185.863V191H229.211V175.805H232.189V178.9C232.189 179.141 232.167 179.708 232.121 180.6L232.053 181.479H232.209C232.873 180.411 233.928 179.877 235.373 179.877C236.656 179.877 237.629 180.222 238.293 180.912C238.957 181.602 239.289 182.592 239.289 183.881V191Z" fill="black"/>
<path d="M123.422 230H122.125V217.844H123.422V230ZM133.562 225.711C133.562 227.107 133.211 228.198 132.508 228.984C131.805 229.766 130.833 230.156 129.594 230.156C128.828 230.156 128.148 229.977 127.555 229.617C126.961 229.258 126.503 228.742 126.18 228.07C125.857 227.398 125.695 226.612 125.695 225.711C125.695 224.315 126.044 223.229 126.742 222.453C127.44 221.672 128.409 221.281 129.648 221.281C130.846 221.281 131.797 221.68 132.5 222.477C133.208 223.273 133.562 224.352 133.562 225.711ZM127.039 225.711C127.039 226.805 127.258 227.638 127.695 228.211C128.133 228.784 128.776 229.07 129.625 229.07C130.474 229.07 131.117 228.786 131.555 228.219C131.997 227.646 132.219 226.81 132.219 225.711C132.219 224.622 131.997 223.797 131.555 223.234C131.117 222.667 130.469 222.383 129.609 222.383C128.76 222.383 128.12 222.661 127.688 223.219C127.255 223.776 127.039 224.607 127.039 225.711ZM139.75 221.281C140.13 221.281 140.471 221.312 140.773 221.375L140.594 222.578C140.24 222.5 139.927 222.461 139.656 222.461C138.964 222.461 138.37 222.742 137.875 223.305C137.385 223.867 137.141 224.568 137.141 225.406V230H135.844V221.438H136.914L137.062 223.023H137.125C137.443 222.466 137.826 222.036 138.273 221.734C138.721 221.432 139.214 221.281 139.75 221.281ZM145.992 230.156C144.727 230.156 143.727 229.771 142.992 229C142.263 228.229 141.898 227.159 141.898 225.789C141.898 224.409 142.237 223.312 142.914 222.5C143.596 221.688 144.51 221.281 145.656 221.281C146.729 221.281 147.578 221.635 148.203 222.344C148.828 223.047 149.141 223.977 149.141 225.133V225.953H143.242C143.268 226.958 143.521 227.721 144 228.242C144.484 228.763 145.164 229.023 146.039 229.023C146.961 229.023 147.872 228.831 148.773 228.445V229.602C148.315 229.799 147.88 229.94 147.469 230.023C147.062 230.112 146.57 230.156 145.992 230.156ZM145.641 222.367C144.953 222.367 144.404 222.591 143.992 223.039C143.586 223.487 143.346 224.107 143.273 224.898H147.75C147.75 224.081 147.568 223.456 147.203 223.023C146.839 222.586 146.318 222.367 145.641 222.367ZM162.273 230V224.43C162.273 223.747 162.128 223.237 161.836 222.898C161.544 222.555 161.091 222.383 160.477 222.383C159.669 222.383 159.073 222.615 158.688 223.078C158.302 223.542 158.109 224.255 158.109 225.219V230H156.812V224.43C156.812 223.747 156.667 223.237 156.375 222.898C156.083 222.555 155.628 222.383 155.008 222.383C154.195 222.383 153.599 222.628 153.219 223.117C152.844 223.602 152.656 224.398 152.656 225.508V230H151.359V221.438H152.414L152.625 222.609H152.688C152.932 222.193 153.276 221.867 153.719 221.633C154.167 221.398 154.667 221.281 155.219 221.281C156.557 221.281 157.432 221.766 157.844 222.734H157.906C158.161 222.286 158.531 221.932 159.016 221.672C159.5 221.411 160.052 221.281 160.672 221.281C161.641 221.281 162.365 221.531 162.844 222.031C163.328 222.526 163.57 223.32 163.57 224.414V230H162.273ZM171.703 230H170.406V221.438H171.703V230ZM170.297 219.117C170.297 218.82 170.37 218.604 170.516 218.469C170.661 218.328 170.844 218.258 171.062 218.258C171.271 218.258 171.451 218.328 171.602 218.469C171.753 218.609 171.828 218.826 171.828 219.117C171.828 219.409 171.753 219.628 171.602 219.773C171.451 219.914 171.271 219.984 171.062 219.984C170.844 219.984 170.661 219.914 170.516 219.773C170.37 219.628 170.297 219.409 170.297 219.117ZM178.438 230.156C177.88 230.156 177.37 230.055 176.906 229.852C176.448 229.643 176.062 229.326 175.75 228.898H175.656C175.719 229.398 175.75 229.872 175.75 230.32V233.844H174.453V221.438H175.508L175.688 222.609H175.75C176.083 222.141 176.471 221.802 176.914 221.594C177.357 221.385 177.865 221.281 178.438 221.281C179.573 221.281 180.448 221.669 181.062 222.445C181.682 223.221 181.992 224.31 181.992 225.711C181.992 227.117 181.677 228.211 181.047 228.992C180.422 229.768 179.552 230.156 178.438 230.156ZM178.25 222.383C177.375 222.383 176.742 222.625 176.352 223.109C175.961 223.594 175.76 224.365 175.75 225.422V225.711C175.75 226.914 175.951 227.776 176.352 228.297C176.753 228.812 177.396 229.07 178.281 229.07C179.021 229.07 179.599 228.771 180.016 228.172C180.438 227.573 180.648 226.747 180.648 225.695C180.648 224.628 180.438 223.81 180.016 223.242C179.599 222.669 179.01 222.383 178.25 222.383ZM189.789 227.664C189.789 228.461 189.492 229.076 188.898 229.508C188.305 229.94 187.471 230.156 186.398 230.156C185.263 230.156 184.378 229.977 183.742 229.617V228.414C184.154 228.622 184.594 228.786 185.062 228.906C185.536 229.026 185.992 229.086 186.43 229.086C187.107 229.086 187.628 228.979 187.992 228.766C188.357 228.547 188.539 228.216 188.539 227.773C188.539 227.44 188.393 227.156 188.102 226.922C187.815 226.682 187.253 226.401 186.414 226.078C185.617 225.781 185.049 225.523 184.711 225.305C184.378 225.081 184.128 224.828 183.961 224.547C183.799 224.266 183.719 223.93 183.719 223.539C183.719 222.841 184.003 222.292 184.57 221.891C185.138 221.484 185.917 221.281 186.906 221.281C187.828 221.281 188.729 221.469 189.609 221.844L189.148 222.898C188.289 222.544 187.51 222.367 186.812 222.367C186.198 222.367 185.734 222.464 185.422 222.656C185.109 222.849 184.953 223.115 184.953 223.453C184.953 223.682 185.01 223.878 185.125 224.039C185.245 224.201 185.435 224.354 185.695 224.5C185.956 224.646 186.456 224.857 187.195 225.133C188.211 225.503 188.896 225.875 189.25 226.25C189.609 226.625 189.789 227.096 189.789 227.664ZM193.125 221.438V226.992C193.125 227.69 193.284 228.211 193.602 228.555C193.919 228.898 194.417 229.07 195.094 229.07C195.99 229.07 196.643 228.826 197.055 228.336C197.471 227.846 197.68 227.047 197.68 225.938V221.438H198.977V230H197.906L197.719 228.852H197.648C197.383 229.273 197.013 229.596 196.539 229.82C196.07 230.044 195.534 230.156 194.93 230.156C193.888 230.156 193.107 229.909 192.586 229.414C192.07 228.919 191.812 228.128 191.812 227.039V221.438H193.125ZM212.648 230V224.43C212.648 223.747 212.503 223.237 212.211 222.898C211.919 222.555 211.466 222.383 210.852 222.383C210.044 222.383 209.448 222.615 209.062 223.078C208.677 223.542 208.484 224.255 208.484 225.219V230H207.188V224.43C207.188 223.747 207.042 223.237 206.75 222.898C206.458 222.555 206.003 222.383 205.383 222.383C204.57 222.383 203.974 222.628 203.594 223.117C203.219 223.602 203.031 224.398 203.031 225.508V230H201.734V221.438H202.789L203 222.609H203.062C203.307 222.193 203.651 221.867 204.094 221.633C204.542 221.398 205.042 221.281 205.594 221.281C206.932 221.281 207.807 221.766 208.219 222.734H208.281C208.536 222.286 208.906 221.932 209.391 221.672C209.875 221.411 210.427 221.281 211.047 221.281C212.016 221.281 212.74 221.531 213.219 222.031C213.703 222.526 213.945 223.32 213.945 224.414V230H212.648Z" fill="black"/>
</g>
<defs>
<filter id="filter0_d_13_165" x="0" y="0" width="336" height="276" filterUnits="userSpaceOnUse" color-interpolation-filters="sRGB">
<feFlood flood-opacity="0" result="BackgroundImageFix"/>
<feColorMatrix in="SourceAlpha" type="matrix" values="0 0 0 0 0 0 0 0 0 0 0 0 0 0 0 0 0 0 127 0" result="hardAlpha"/>
<feOffset dy="8"/>
<feGaussianBlur stdDeviation="4"/>
<feColorMatrix type="matrix" values="0 0 0 0 0 0 0 0 0 0 0 0 0 0 0 0 0 0 0.1 0"/>
<feBlend mode="normal" in2="BackgroundImageFix" result="effect1_dropShadow_13_165"/>
<feBlend mode="normal" in="SourceGraphic" in2="effect1_dropShadow_13_165" result="shape"/>
</filter>
<linearGradient id="paint0_linear_13_165" x1="162.23" y1="153.998" x2="162.23" y2="105.051" gradientUnits="userSpaceOnUse">
<stop stop-color="#808080" stop-opacity="0.25"/>
<stop offset="0.54" stop-color="#808080" stop-opacity="0.12"/>
<stop offset="1" stop-color="#808080" stop-opacity="0.1"/>
</linearGradient>
<linearGradient id="paint1_linear_13_165" x1="67975.7" y1="52270.1" x2="67975.7" y2="24" gradientUnits="userSpaceOnUse">
<stop stop-color="#808080" stop-opacity="0.25"/>
<stop offset="0.54" stop-color="#808080" stop-opacity="0.12"/>
<stop offset="1" stop-color="#808080" stop-opacity="0.1"/>
</linearGradient>
<linearGradient id="paint2_linear_13_165" x1="41700.5" y1="61071.3" x2="41700.5" y2="26317.6" gradientUnits="userSpaceOnUse">
<stop stop-color="#808080" stop-opacity="0.25"/>
<stop offset="0.54" stop-color="#808080" stop-opacity="0.12"/>
<stop offset="1" stop-color="#808080" stop-opacity="0.1"/>
</linearGradient>
<linearGradient id="paint3_linear_13_165" x1="3155.72" y1="5700.23" x2="3155.72" y2="5049.35" gradientUnits="userSpaceOnUse">
<stop stop-color="#808080" stop-opacity="0.25"/>
<stop offset="0.54" stop-color="#808080" stop-opacity="0.12"/>
<stop offset="1" stop-color="#808080" stop-opacity="0.1"/>
</linearGradient>
<clipPath id="clip0_13_165">
<rect width="202.795" height="130" fill="white" transform="translate(66.6027 24)"/>
</clipPath>
</defs>
</svg>
