<svg width="336" height="276" viewBox="0 0 336 276" fill="none" xmlns="http://www.w3.org/2000/svg">
<g filter="url(#filter0_d_13_322)">
<rect x="8" width="320" height="260" rx="5" fill="white"/>
<g clip-path="url(#clip0_13_322)">
<path d="M69.4549 145.797C69.1865 145.802 68.9269 145.894 68.7141 146.057C68.0827 144.389 67.1053 143.316 66.0072 143.316C64.9091 143.316 63.9317 144.389 63.3003 146.057C63.0876 145.894 62.828 145.802 62.5595 145.797C61.312 145.797 60.3007 147.907 60.3007 150.509H71.7138C71.7138 147.907 70.7024 145.797 69.4549 145.797Z" fill="#00BAFC"/>
<path d="M114.803 150.246H56.9369V150.772H114.803V150.246Z" fill="#3F3D56"/>
<path d="M275.142 134.743C274.874 134.748 274.614 134.84 274.401 135.003C273.77 133.335 272.792 132.263 271.694 132.263C270.596 132.263 269.619 133.335 268.987 135.003C268.775 134.84 268.515 134.748 268.247 134.743C266.999 134.743 265.988 136.853 265.988 139.455H277.401C277.401 136.853 276.389 134.743 275.142 134.743Z" fill="#00BAFC"/>
<path d="M250.585 48.1599H195.483V47.0242H170.498V48.1599H115.17C114.68 48.1599 114.196 48.2563 113.743 48.4436C113.291 48.6309 112.88 48.9055 112.534 49.2516C112.188 49.5977 111.914 50.0085 111.726 50.4607C111.539 50.9129 111.443 51.3976 111.443 51.8871V127.338C111.443 128.326 111.835 129.274 112.534 129.973C113.233 130.672 114.181 131.065 115.17 131.065H250.585C251.573 131.065 252.521 130.672 253.22 129.973C253.919 129.274 254.312 128.326 254.312 127.338V51.8871C254.312 51.3976 254.216 50.9129 254.028 50.4607C253.841 50.0085 253.567 49.5977 253.22 49.2516C252.874 48.9055 252.463 48.6309 252.011 48.4436C251.559 48.2563 251.074 48.1599 250.585 48.1599Z" fill="#3F3D56"/>
<path opacity="0.2" d="M249.314 54.7458H116.441V129.703H249.314V54.7458Z" fill="black"/>
<path d="M182.764 52.7026C183.516 52.7026 184.127 52.0925 184.127 51.3398C184.127 50.5871 183.516 49.977 182.764 49.977C182.011 49.977 181.401 50.5871 181.401 51.3398C181.401 52.0925 182.011 52.7026 182.764 52.7026Z" fill="#00BAFC"/>
<path d="M279.063 138.929H86.2645V139.455H279.063V138.929Z" fill="#3F3D56"/>
<path d="M201.032 82.7512V77.2055C201.032 76.312 200.856 75.4272 200.514 74.6017C200.172 73.7762 199.671 73.0261 199.039 72.3942C198.407 71.7624 197.657 71.2612 196.831 70.9193C196.006 70.5773 195.121 70.4013 194.227 70.4013H188.682C188.682 69.6527 186.276 69.0394 183.219 68.9813V62.2936C184.178 62.1728 185.055 61.691 185.672 60.9464C186.288 60.2017 186.597 59.2502 186.537 58.2855C186.476 57.3208 186.05 56.4154 185.346 55.7536C184.641 55.0919 183.711 54.7235 182.744 54.7235C181.778 54.7235 180.847 55.0919 180.143 55.7536C179.438 56.4154 179.012 57.3208 178.952 58.2855C178.891 59.2502 179.201 60.2017 179.817 60.9464C180.433 61.691 181.31 62.1728 182.269 62.2936V68.9813C179.213 69.0394 176.807 69.6527 176.807 70.4013H170.311C169.418 70.4013 168.533 70.5773 167.707 70.9193C166.882 71.2612 166.132 71.7624 165.5 72.3942C164.868 73.0261 164.367 73.7762 164.025 74.6017C163.683 75.4272 163.507 76.312 163.507 77.2055V82.7512C162.72 82.7512 162.082 85.4094 162.082 88.6886C162.082 91.9678 162.72 94.626 163.507 94.626V101.122C163.507 102.015 163.683 102.9 164.025 103.726C164.367 104.551 164.868 105.301 165.5 105.933C166.132 106.565 166.882 107.066 167.707 107.408C168.533 107.75 169.418 107.926 170.311 107.926H194.227C195.121 107.926 196.006 107.75 196.831 107.408C197.657 107.066 198.407 106.565 199.039 105.933C199.671 105.301 200.172 104.551 200.514 103.726C200.856 102.9 201.032 102.015 201.032 101.122V94.626C201.819 94.626 202.457 91.9677 202.457 88.6886C202.457 85.4094 201.819 82.7512 201.032 82.7512Z" fill="#00BAFC"/>
<path d="M171.674 72.5388H192.865C194.464 72.5388 195.998 73.174 197.128 74.3047C198.259 75.4353 198.894 76.9688 198.894 78.5678V99.7593C198.894 101.358 198.259 102.892 197.128 104.023C195.998 105.153 194.464 105.788 192.865 105.788H171.674C170.075 105.788 168.541 105.153 167.41 104.023C166.28 102.892 165.645 101.358 165.645 99.7593V78.5679C165.645 76.9688 166.28 75.4353 167.41 74.3047C168.541 73.174 170.075 72.5388 171.674 72.5388Z" fill="#3F3D56"/>
<path d="M174.669 88.3324C173.536 88.3311 172.449 87.8803 171.648 87.0788C170.847 86.2774 170.396 85.1908 170.394 84.0574C170.394 83.9944 170.42 83.934 170.464 83.8895C170.509 83.8449 170.569 83.8199 170.632 83.8199C170.695 83.8199 170.755 83.8449 170.8 83.8895C170.844 83.934 170.869 83.9944 170.869 84.0574C170.869 85.0652 171.27 86.0318 171.982 86.7444C172.695 87.457 173.662 87.8574 174.669 87.8574C175.677 87.8574 176.644 87.457 177.356 86.7444C178.069 86.0318 178.469 85.0652 178.469 84.0574C178.469 83.9944 178.494 83.934 178.539 83.8895C178.583 83.8449 178.644 83.8199 178.707 83.8199C178.77 83.8199 178.83 83.8449 178.875 83.8895C178.919 83.934 178.944 83.9944 178.944 84.0574C178.943 85.1908 178.492 86.2774 177.691 87.0788C176.889 87.8803 175.803 88.3311 174.669 88.3324Z" fill="#00BAFC"/>
<path d="M182.269 96.4073C181.388 96.4063 180.543 96.0556 179.919 95.4323C179.296 94.809 178.945 93.9638 178.944 93.0823C178.944 93.0193 178.969 92.9589 179.014 92.9144C179.058 92.8698 179.119 92.8448 179.182 92.8448C179.245 92.8448 179.305 92.8698 179.35 92.9144C179.394 92.9589 179.419 93.0193 179.419 93.0823C179.419 93.8382 179.72 94.5631 180.254 95.0975C180.789 95.632 181.513 95.9323 182.269 95.9323C183.025 95.9323 183.75 95.632 184.285 95.0975C184.819 94.5631 185.119 93.8382 185.119 93.0823C185.119 93.0193 185.144 92.9589 185.189 92.9144C185.233 92.8698 185.294 92.8448 185.357 92.8448C185.42 92.8448 185.48 92.8698 185.525 92.9144C185.569 92.9589 185.594 93.0193 185.594 93.0823C185.593 93.9638 185.243 94.809 184.619 95.4323C183.996 96.0556 183.151 96.4063 182.269 96.4073Z" fill="#00BAFC"/>
<path d="M189.869 88.3324C188.736 88.3311 187.649 87.8803 186.848 87.0788C186.046 86.2774 185.596 85.1908 185.594 84.0574C185.594 83.9944 185.619 83.934 185.664 83.8895C185.708 83.8449 185.769 83.8199 185.832 83.8199C185.895 83.8199 185.955 83.8449 186 83.8895C186.044 83.934 186.069 83.9944 186.069 84.0574C186.069 85.0652 186.47 86.0318 187.182 86.7444C187.895 87.457 188.861 87.8574 189.869 87.8574C190.877 87.8574 191.844 87.457 192.556 86.7444C193.269 86.0318 193.669 85.0652 193.669 84.0574C193.669 83.9944 193.694 83.934 193.739 83.8895C193.783 83.8449 193.844 83.8199 193.907 83.8199C193.97 83.8199 194.03 83.8449 194.075 83.8895C194.119 83.934 194.144 83.9944 194.144 84.0574C194.143 85.1908 193.692 86.2774 192.891 87.0788C192.089 87.8803 191.003 88.3311 189.869 88.3324Z" fill="#00BAFC"/>
<path d="M174.669 86.4324C175.85 86.4324 176.807 85.4754 176.807 84.2949C176.807 83.1144 175.85 82.1574 174.669 82.1574C173.489 82.1574 172.532 83.1144 172.532 84.2949C172.532 85.4754 173.489 86.4324 174.669 86.4324Z" fill="#00BAFC"/>
<path d="M189.869 86.4324C191.05 86.4324 192.007 85.4754 192.007 84.2949C192.007 83.1144 191.05 82.1574 189.869 82.1574C188.689 82.1574 187.732 83.1144 187.732 84.2949C187.732 85.4754 188.689 86.4324 189.869 86.4324Z" fill="#00BAFC"/>
<path d="M182.269 95.2198C183.319 95.2198 184.169 94.7944 184.169 94.2698C184.169 93.7451 183.319 93.3198 182.269 93.3198C181.22 93.3198 180.369 93.7451 180.369 94.2698C180.369 94.7944 181.22 95.2198 182.269 95.2198Z" fill="#00BAFC"/>
<path d="M258.043 128.339H245.075V127.405C245.075 127.381 245.07 127.357 245.061 127.334C245.052 127.312 245.038 127.291 245.021 127.274C245.004 127.257 244.983 127.243 244.961 127.234C244.938 127.225 244.914 127.22 244.89 127.22H240.444C240.419 127.22 240.395 127.225 240.373 127.234C240.35 127.243 240.33 127.257 240.313 127.274C240.296 127.291 240.282 127.312 240.273 127.334C240.263 127.357 240.259 127.381 240.259 127.405V128.339H237.48V127.405C237.48 127.381 237.475 127.357 237.466 127.334C237.456 127.312 237.443 127.291 237.425 127.274C237.408 127.257 237.388 127.243 237.365 127.234C237.343 127.225 237.319 127.22 237.294 127.22H232.848C232.824 127.22 232.8 127.225 232.778 127.234C232.755 127.243 232.735 127.257 232.717 127.274C232.7 127.291 232.687 127.312 232.677 127.334C232.668 127.357 232.663 127.381 232.663 127.405V128.339H229.884V127.405C229.884 127.381 229.88 127.357 229.87 127.334C229.861 127.312 229.847 127.291 229.83 127.274C229.813 127.257 229.792 127.243 229.77 127.234C229.747 127.225 229.723 127.22 229.699 127.22H225.253C225.229 127.22 225.205 127.225 225.182 127.234C225.16 127.243 225.139 127.257 225.122 127.274C225.105 127.291 225.091 127.312 225.082 127.334C225.073 127.357 225.068 127.381 225.068 127.405V128.339H222.289V127.405C222.289 127.381 222.284 127.357 222.275 127.334C222.266 127.312 222.252 127.291 222.235 127.274C222.217 127.257 222.197 127.243 222.175 127.234C222.152 127.225 222.128 127.22 222.104 127.22H217.658C217.633 127.22 217.609 127.225 217.587 127.234C217.564 127.243 217.544 127.257 217.527 127.274C217.509 127.291 217.496 127.312 217.486 127.334C217.477 127.357 217.472 127.381 217.472 127.405V128.339H214.693V127.405C214.693 127.381 214.689 127.357 214.679 127.334C214.67 127.312 214.656 127.291 214.639 127.274C214.622 127.257 214.602 127.243 214.579 127.234C214.557 127.225 214.533 127.22 214.508 127.22H210.062C210.038 127.22 210.014 127.225 209.991 127.234C209.969 127.243 209.948 127.257 209.931 127.274C209.914 127.291 209.9 127.312 209.891 127.334C209.882 127.357 209.877 127.381 209.877 127.405V128.339H207.098V127.405C207.098 127.381 207.093 127.357 207.084 127.334C207.075 127.312 207.061 127.291 207.044 127.274C207.027 127.257 207.006 127.243 206.984 127.234C206.961 127.225 206.937 127.22 206.913 127.22H202.467C202.442 127.22 202.418 127.225 202.396 127.234C202.373 127.243 202.353 127.257 202.336 127.274C202.319 127.291 202.305 127.312 202.296 127.334C202.286 127.357 202.281 127.381 202.281 127.405V128.339H199.503V127.405C199.503 127.381 199.498 127.357 199.489 127.334C199.479 127.312 199.466 127.291 199.448 127.274C199.431 127.257 199.411 127.243 199.388 127.234C199.366 127.225 199.342 127.22 199.317 127.22H164.49C164.465 127.22 164.441 127.225 164.419 127.234C164.396 127.243 164.376 127.257 164.359 127.274C164.341 127.291 164.328 127.312 164.318 127.334C164.309 127.357 164.304 127.381 164.304 127.405V128.339H161.526V127.405C161.526 127.381 161.521 127.357 161.512 127.334C161.502 127.312 161.489 127.291 161.471 127.274C161.454 127.257 161.434 127.243 161.411 127.234C161.389 127.225 161.365 127.22 161.34 127.22H156.894C156.87 127.22 156.846 127.225 156.823 127.234C156.801 127.243 156.78 127.257 156.763 127.274C156.746 127.291 156.732 127.312 156.723 127.334C156.714 127.357 156.709 127.381 156.709 127.405V128.339H153.93V127.405C153.93 127.381 153.925 127.357 153.916 127.334C153.907 127.312 153.893 127.291 153.876 127.274C153.859 127.257 153.838 127.243 153.816 127.234C153.793 127.225 153.769 127.22 153.745 127.22H149.299C149.274 127.22 149.25 127.225 149.228 127.234C149.205 127.243 149.185 127.257 149.168 127.274C149.151 127.291 149.137 127.312 149.128 127.334C149.118 127.357 149.114 127.381 149.114 127.405V128.339H146.335V127.405C146.335 127.381 146.33 127.357 146.321 127.334C146.311 127.312 146.298 127.291 146.281 127.274C146.263 127.257 146.243 127.243 146.22 127.234C146.198 127.225 146.174 127.22 146.15 127.22H141.703C141.679 127.22 141.655 127.225 141.633 127.234C141.61 127.243 141.59 127.257 141.572 127.274C141.555 127.291 141.542 127.312 141.532 127.334C141.523 127.357 141.518 127.381 141.518 127.405V128.339H138.739V127.405C138.739 127.381 138.735 127.357 138.725 127.334C138.716 127.312 138.702 127.291 138.685 127.274C138.668 127.257 138.647 127.243 138.625 127.234C138.603 127.225 138.578 127.22 138.554 127.22H134.108C134.084 127.22 134.06 127.225 134.037 127.234C134.015 127.243 133.994 127.257 133.977 127.274C133.96 127.291 133.946 127.312 133.937 127.334C133.928 127.357 133.923 127.381 133.923 127.405V128.339H131.144V127.405C131.144 127.381 131.139 127.357 131.13 127.334C131.121 127.312 131.107 127.291 131.09 127.274C131.072 127.257 131.052 127.243 131.03 127.234C131.007 127.225 130.983 127.22 130.959 127.22H126.513C126.488 127.22 126.464 127.225 126.442 127.234C126.419 127.243 126.399 127.257 126.382 127.274C126.364 127.291 126.351 127.312 126.341 127.334C126.332 127.357 126.327 127.381 126.327 127.405V128.339H123.549V127.405C123.549 127.381 123.544 127.357 123.534 127.334C123.525 127.312 123.511 127.291 123.494 127.274C123.477 127.257 123.457 127.243 123.434 127.234C123.412 127.225 123.388 127.22 123.363 127.22H118.917C118.893 127.22 118.869 127.225 118.846 127.234C118.824 127.243 118.803 127.257 118.786 127.274C118.769 127.291 118.755 127.312 118.746 127.334C118.737 127.357 118.732 127.381 118.732 127.405V128.339H110.21C109.626 128.339 109.048 128.454 108.509 128.678C107.969 128.901 107.479 129.229 107.066 129.642C106.653 130.055 106.326 130.545 106.103 131.084C105.879 131.624 105.764 132.202 105.764 132.786V134.796C105.764 135.975 106.233 137.106 107.066 137.94C107.9 138.774 109.031 139.242 110.21 139.242H258.043C259.222 139.242 260.353 138.774 261.187 137.94C262.021 137.106 262.489 135.975 262.489 134.796V132.786C262.489 132.202 262.374 131.624 262.151 131.084C261.927 130.545 261.6 130.055 261.187 129.642C260.774 129.229 260.284 128.901 259.744 128.678C259.205 128.454 258.627 128.339 258.043 128.339Z" fill="#3F3D56"/>
<path d="M225.406 107.629H136.766V108.155H225.406V107.629Z" fill="#00BAFC"/>
<path d="M143.078 107.366H121.247C121.946 99.1392 121.946 90.868 121.247 82.6413H143.078C141.876 91.1093 141.806 99.3641 143.078 107.366Z" fill="#D0CDE1"/>
<path d="M140.185 87.6388H124.403V88.691H140.185V87.6388Z" fill="#3F3D56"/>
<path d="M140.185 91.0582H124.403V92.1103H140.185V91.0582Z" fill="#3F3D56"/>
<path d="M140.185 94.4775H124.403V95.5296H140.185V94.4775Z" fill="#3F3D56"/>
<path d="M140.185 97.8969H124.403V98.949H140.185V97.8969Z" fill="#3F3D56"/>
<path d="M140.185 101.316H124.403V102.368H140.185V101.316Z" fill="#3F3D56"/>
<path d="M85.0661 24.8436C85.0661 24.8436 81.636 23.6186 79.4309 28.5188C77.2257 33.4191 73.7956 38.8093 73.7956 38.8093L75.7557 39.2994C75.7557 39.2994 76.2457 35.8692 77.4708 35.3792L76.9807 39.7894C76.9807 39.7894 91.6815 44.9346 98.2968 39.2994L98.0518 37.5843C98.0518 37.5843 99.0318 37.8293 99.0318 39.2994L99.7669 38.5643C99.7669 38.5643 99.0318 37.0942 96.8267 35.1341C95.3794 33.8476 94.882 31.4 94.7111 29.8697C94.5831 28.5919 94.0718 27.3827 93.2444 26.4005C91.779 24.7022 89.1088 22.8971 85.0661 24.8436Z" fill="#2F2E41"/>
<path d="M75.1739 132.929L76.226 138.979L80.4345 138.189L81.2235 132.929H75.1739Z" fill="#FFB9B9"/>
<path d="M81.2235 136.348L75.4369 136.874L75.6999 141.609L75.4369 147.658C75.4369 147.658 72.0175 154.497 77.0151 153.971C82.0126 153.445 81.4865 150.815 81.4865 150.815L82.8016 149.237L82.0126 145.291L81.2235 136.348Z" fill="#2F2E41"/>
<path d="M98.8463 132.929L97.7942 138.979L93.5858 138.189L92.7967 132.929H98.8463Z" fill="#FFB9B9"/>
<path d="M92.7967 136.348L98.5833 136.874L98.3202 141.609L98.5833 147.658C98.5833 147.658 102.003 154.497 97.0051 153.971C92.0076 153.445 92.5337 150.815 92.5337 150.815L91.2185 149.237L92.0076 145.291L92.7967 136.348Z" fill="#2F2E41"/>
<path d="M86.7471 41.1326C90.0882 41.1326 92.7967 38.4241 92.7967 35.083C92.7967 31.7418 90.0882 29.0333 86.7471 29.0333C83.406 29.0333 80.6975 31.7418 80.6975 35.083C80.6975 38.4241 83.406 41.1326 86.7471 41.1326Z" fill="#FFB9B9"/>
<path d="M82.8017 38.2393L83.5907 47.7082L90.9555 47.4452C90.9555 47.4452 88.8513 41.3956 90.1664 39.0284L82.8017 38.2393Z" fill="#FFB9B9"/>
<path d="M87.0101 45.8671L90.0396 43.9776L93.3228 45.604L98.5833 47.9713L96.7421 70.3286C96.7421 70.3286 100.951 84.269 100.161 91.1077C99.3724 97.9464 108.841 132.14 101.214 133.718C93.5858 135.296 88.0622 136.874 87.7992 134.244C87.5362 131.614 87.0101 91.3707 87.0101 91.3707C87.0101 91.3707 86.221 133.981 83.0647 134.507C79.9084 135.033 66.231 137.137 67.2831 133.981C68.3352 130.825 75.4369 75.5891 78.8563 72.4328L79.3823 69.8025L74.9109 48.4973L83.3078 44.3124L87.0101 45.8671Z" fill="#2F2E41"/>
<path d="M71.2284 78.4824L70.9654 89.2665C70.9654 89.2665 68.4335 99.9135 72.7243 99.8506C77.015 99.7876 73.8587 89.2665 73.8587 89.2665L75.6999 78.7454L71.2284 78.4824Z" fill="#FFB9B9"/>
<path d="M111.002 67.1641L118.394 75.0206C118.394 75.0206 127.384 81.261 124.146 84.0773C120.908 86.8935 116.239 76.9513 116.239 76.9513L107.847 70.3437L111.002 67.1641Z" fill="#FFB9B9"/>
<path d="M78.9878 71.7751L97.0025 71.2228L96.7684 69.9997V69.9944L79.356 69.6788L78.9878 71.7751Z" fill="#D0CDE1"/>
<path d="M82.6702 72.3013C83.5418 72.3013 84.2483 71.5947 84.2483 70.7231C84.2483 69.8515 83.5418 69.1449 82.6702 69.1449C81.7986 69.1449 81.092 69.8515 81.092 70.7231C81.092 71.5947 81.7986 72.3013 82.6702 72.3013Z" fill="#2F2E41"/>
<path d="M77.0151 48.7604L75.3054 48.3658C75.3054 48.3658 73.0697 49.2864 72.5436 52.1797C72.0175 55.073 65.1789 77.6933 68.5982 79.0085C72.0175 80.3236 77.0151 80.8496 77.0151 80.3236C77.0151 79.7975 79.1193 60.0705 79.1193 60.0705L77.0151 48.7604Z" fill="#2F2E41"/>
<path d="M93.1032 49.763L98.5833 47.9713C98.5833 47.9713 101.214 47.9713 101.214 50.8646C101.214 52.0581 106.255 61.8622 106.255 61.8622C106.255 61.8622 118.367 70.4961 116.513 70.8051C113.356 71.3312 111.515 76.8547 111.515 76.8547L99.6789 66.3336L93.1032 49.763Z" fill="#2F2E41"/>
<path d="M79.3688 35.5335C79.3688 35.5335 81.3289 32.8383 83.044 32.3483C84.7591 31.8583 85.0041 29.4082 85.0041 29.4082C85.0041 29.4082 89.4143 34.3084 92.1095 34.5534C94.8046 34.7984 92.3545 28.6731 92.3545 28.6731L87.4542 27.4481L82.799 27.9381L79.1238 30.3882L79.3688 35.5335Z" fill="#2F2E41"/>
<path d="M80.829 35.346C81.2648 35.346 81.6181 34.816 81.6181 34.1624C81.6181 33.5087 81.2648 32.9787 80.829 32.9787C80.3932 32.9787 80.0399 33.5087 80.0399 34.1624C80.0399 34.816 80.3932 35.346 80.829 35.346Z" fill="#FFB9B9"/>
</g>
<path d="M109.113 191H106.086V179.242H102.209V176.723H112.99V179.242H109.113V191ZM119.475 181.996C118.843 181.996 118.348 182.198 117.99 182.602C117.632 182.999 117.427 183.565 117.375 184.301H121.555C121.542 183.565 121.35 182.999 120.979 182.602C120.607 182.198 120.106 181.996 119.475 181.996ZM119.895 191.195C118.137 191.195 116.763 190.71 115.773 189.74C114.784 188.77 114.289 187.396 114.289 185.619C114.289 183.79 114.745 182.377 115.656 181.381C116.574 180.378 117.84 179.877 119.455 179.877C120.998 179.877 122.199 180.316 123.059 181.195C123.918 182.074 124.348 183.288 124.348 184.838V186.283H117.307C117.339 187.13 117.59 187.79 118.059 188.266C118.527 188.741 119.185 188.979 120.031 188.979C120.689 188.979 121.311 188.91 121.896 188.773C122.482 188.637 123.094 188.419 123.732 188.119V190.424C123.212 190.684 122.655 190.876 122.062 191C121.47 191.13 120.747 191.195 119.895 191.195ZM129.748 191H126.77V175.805H129.748V191ZM137.404 181.996C136.773 181.996 136.278 182.198 135.92 182.602C135.562 182.999 135.357 183.565 135.305 184.301H139.484C139.471 183.565 139.279 182.999 138.908 182.602C138.537 182.198 138.036 181.996 137.404 181.996ZM137.824 191.195C136.066 191.195 134.693 190.71 133.703 189.74C132.714 188.77 132.219 187.396 132.219 185.619C132.219 183.79 132.674 182.377 133.586 181.381C134.504 180.378 135.77 179.877 137.385 179.877C138.928 179.877 140.129 180.316 140.988 181.195C141.848 182.074 142.277 183.288 142.277 184.838V186.283H135.236C135.269 187.13 135.52 187.79 135.988 188.266C136.457 188.741 137.115 188.979 137.961 188.979C138.618 188.979 139.24 188.91 139.826 188.773C140.412 188.637 141.024 188.419 141.662 188.119V190.424C141.141 190.684 140.585 190.876 139.992 191C139.4 191.13 138.677 191.195 137.824 191.195ZM154.201 180.082V181.596L152.492 182.035C152.805 182.523 152.961 183.07 152.961 183.676C152.961 184.848 152.551 185.762 151.73 186.42C150.917 187.071 149.784 187.396 148.332 187.396L147.795 187.367L147.355 187.318C147.049 187.553 146.896 187.813 146.896 188.1C146.896 188.529 147.443 188.744 148.537 188.744H150.393C151.59 188.744 152.502 189.001 153.127 189.516C153.758 190.03 154.074 190.785 154.074 191.781C154.074 193.057 153.54 194.047 152.473 194.75C151.411 195.453 149.885 195.805 147.893 195.805C146.369 195.805 145.204 195.538 144.396 195.004C143.596 194.477 143.195 193.734 143.195 192.777C143.195 192.12 143.4 191.57 143.811 191.127C144.221 190.684 144.823 190.368 145.617 190.18C145.311 190.049 145.044 189.838 144.816 189.545C144.589 189.245 144.475 188.93 144.475 188.598C144.475 188.181 144.595 187.836 144.836 187.562C145.077 187.283 145.425 187.009 145.881 186.742C145.308 186.495 144.852 186.098 144.514 185.551C144.182 185.004 144.016 184.359 144.016 183.617C144.016 182.426 144.403 181.505 145.178 180.854C145.952 180.202 147.059 179.877 148.498 179.877C148.804 179.877 149.165 179.906 149.582 179.965C150.005 180.017 150.275 180.056 150.393 180.082H154.201ZM145.773 192.543C145.773 192.953 145.969 193.275 146.359 193.51C146.757 193.744 147.31 193.861 148.02 193.861C149.087 193.861 149.924 193.715 150.529 193.422C151.135 193.129 151.438 192.729 151.438 192.221C151.438 191.811 151.258 191.527 150.9 191.371C150.542 191.215 149.989 191.137 149.24 191.137H147.697C147.15 191.137 146.691 191.264 146.32 191.518C145.956 191.778 145.773 192.12 145.773 192.543ZM146.857 183.656C146.857 184.249 146.991 184.717 147.258 185.062C147.531 185.408 147.945 185.58 148.498 185.58C149.058 185.58 149.468 185.408 149.729 185.062C149.989 184.717 150.119 184.249 150.119 183.656C150.119 182.341 149.579 181.684 148.498 181.684C147.404 181.684 146.857 182.341 146.857 183.656ZM162.102 179.877C162.505 179.877 162.84 179.906 163.107 179.965L162.883 182.758C162.642 182.693 162.349 182.66 162.004 182.66C161.053 182.66 160.311 182.904 159.777 183.393C159.25 183.881 158.986 184.564 158.986 185.443V191H156.008V180.082H158.264L158.703 181.918H158.85C159.188 181.306 159.644 180.814 160.217 180.443C160.796 180.066 161.424 179.877 162.102 179.877ZM172.023 191L171.447 189.516H171.369C170.868 190.147 170.35 190.587 169.816 190.834C169.289 191.075 168.599 191.195 167.746 191.195C166.698 191.195 165.871 190.896 165.266 190.297C164.667 189.698 164.367 188.845 164.367 187.738C164.367 186.579 164.771 185.727 165.578 185.18C166.392 184.626 167.616 184.32 169.25 184.262L171.145 184.203V183.725C171.145 182.618 170.578 182.064 169.445 182.064C168.573 182.064 167.548 182.328 166.369 182.855L165.383 180.844C166.639 180.186 168.033 179.857 169.562 179.857C171.027 179.857 172.15 180.176 172.932 180.814C173.713 181.452 174.104 182.423 174.104 183.725V191H172.023ZM171.145 185.941L169.992 185.98C169.126 186.007 168.482 186.163 168.059 186.449C167.635 186.736 167.424 187.172 167.424 187.758C167.424 188.598 167.906 189.018 168.869 189.018C169.559 189.018 170.109 188.819 170.52 188.422C170.936 188.025 171.145 187.497 171.145 186.84V185.941ZM186.955 191H183.977V184.623C183.977 183.835 183.843 183.246 183.576 182.855C183.316 182.458 182.902 182.26 182.336 182.26C181.574 182.26 181.021 182.54 180.676 183.1C180.331 183.66 180.158 184.581 180.158 185.863V191H177.18V180.082H179.455L179.855 181.479H180.021C180.314 180.977 180.738 180.587 181.291 180.307C181.844 180.02 182.479 179.877 183.195 179.877C184.829 179.877 185.936 180.411 186.516 181.479H186.779C187.072 180.971 187.502 180.577 188.068 180.297C188.641 180.017 189.286 179.877 190.002 179.877C191.239 179.877 192.173 180.196 192.805 180.834C193.443 181.465 193.762 182.481 193.762 183.881V191H190.773V184.623C190.773 183.835 190.64 183.246 190.373 182.855C190.113 182.458 189.699 182.26 189.133 182.26C188.404 182.26 187.857 182.52 187.492 183.041C187.134 183.562 186.955 184.389 186.955 185.521V191ZM208.098 179.877C209.387 179.877 210.396 180.382 211.125 181.391C211.854 182.393 212.219 183.77 212.219 185.521C212.219 187.325 211.841 188.721 211.086 189.711C210.337 190.701 209.315 191.195 208.02 191.195C206.737 191.195 205.731 190.73 205.002 189.799H204.797L204.299 191H202.023V175.805H205.002V179.34C205.002 179.789 204.963 180.508 204.885 181.498H205.002C205.699 180.417 206.73 179.877 208.098 179.877ZM207.141 182.26C206.405 182.26 205.868 182.488 205.529 182.943C205.191 183.393 205.015 184.138 205.002 185.18V185.502C205.002 186.674 205.174 187.514 205.52 188.021C205.871 188.529 206.424 188.783 207.18 188.783C207.792 188.783 208.277 188.503 208.635 187.943C208.999 187.377 209.182 186.557 209.182 185.482C209.182 184.408 208.999 183.604 208.635 183.07C208.27 182.53 207.772 182.26 207.141 182.26ZM217.053 185.521C217.053 186.602 217.229 187.419 217.58 187.973C217.938 188.526 218.518 188.803 219.318 188.803C220.113 188.803 220.682 188.529 221.027 187.982C221.379 187.429 221.555 186.609 221.555 185.521C221.555 184.441 221.379 183.63 221.027 183.09C220.676 182.549 220.1 182.279 219.299 182.279C218.505 182.279 217.932 182.549 217.58 183.09C217.229 183.624 217.053 184.434 217.053 185.521ZM224.602 185.521C224.602 187.299 224.133 188.689 223.195 189.691C222.258 190.694 220.952 191.195 219.279 191.195C218.231 191.195 217.307 190.967 216.506 190.512C215.705 190.049 215.09 189.389 214.66 188.529C214.23 187.67 214.016 186.667 214.016 185.521C214.016 183.738 214.481 182.351 215.412 181.361C216.343 180.372 217.652 179.877 219.338 179.877C220.386 179.877 221.311 180.105 222.111 180.561C222.912 181.016 223.527 181.671 223.957 182.523C224.387 183.376 224.602 184.376 224.602 185.521ZM231.662 188.822C232.183 188.822 232.808 188.708 233.537 188.48V190.697C232.795 191.029 231.883 191.195 230.803 191.195C229.611 191.195 228.742 190.896 228.195 190.297C227.655 189.691 227.385 188.786 227.385 187.582V182.318H225.959V181.059L227.6 180.062L228.459 177.758H230.363V180.082H233.42V182.318H230.363V187.582C230.363 188.005 230.48 188.318 230.715 188.52C230.956 188.721 231.271 188.822 231.662 188.822Z" fill="black"/>
<path d="M123.422 230H122.125V217.844H123.422V230ZM133.562 225.711C133.562 227.107 133.211 228.198 132.508 228.984C131.805 229.766 130.833 230.156 129.594 230.156C128.828 230.156 128.148 229.977 127.555 229.617C126.961 229.258 126.503 228.742 126.18 228.07C125.857 227.398 125.695 226.612 125.695 225.711C125.695 224.315 126.044 223.229 126.742 222.453C127.44 221.672 128.409 221.281 129.648 221.281C130.846 221.281 131.797 221.68 132.5 222.477C133.208 223.273 133.562 224.352 133.562 225.711ZM127.039 225.711C127.039 226.805 127.258 227.638 127.695 228.211C128.133 228.784 128.776 229.07 129.625 229.07C130.474 229.07 131.117 228.786 131.555 228.219C131.997 227.646 132.219 226.81 132.219 225.711C132.219 224.622 131.997 223.797 131.555 223.234C131.117 222.667 130.469 222.383 129.609 222.383C128.76 222.383 128.12 222.661 127.688 223.219C127.255 223.776 127.039 224.607 127.039 225.711ZM139.75 221.281C140.13 221.281 140.471 221.312 140.773 221.375L140.594 222.578C140.24 222.5 139.927 222.461 139.656 222.461C138.964 222.461 138.37 222.742 137.875 223.305C137.385 223.867 137.141 224.568 137.141 225.406V230H135.844V221.438H136.914L137.062 223.023H137.125C137.443 222.466 137.826 222.036 138.273 221.734C138.721 221.432 139.214 221.281 139.75 221.281ZM145.992 230.156C144.727 230.156 143.727 229.771 142.992 229C142.263 228.229 141.898 227.159 141.898 225.789C141.898 224.409 142.237 223.312 142.914 222.5C143.596 221.688 144.51 221.281 145.656 221.281C146.729 221.281 147.578 221.635 148.203 222.344C148.828 223.047 149.141 223.977 149.141 225.133V225.953H143.242C143.268 226.958 143.521 227.721 144 228.242C144.484 228.763 145.164 229.023 146.039 229.023C146.961 229.023 147.872 228.831 148.773 228.445V229.602C148.315 229.799 147.88 229.94 147.469 230.023C147.062 230.112 146.57 230.156 145.992 230.156ZM145.641 222.367C144.953 222.367 144.404 222.591 143.992 223.039C143.586 223.487 143.346 224.107 143.273 224.898H147.75C147.75 224.081 147.568 223.456 147.203 223.023C146.839 222.586 146.318 222.367 145.641 222.367ZM162.273 230V224.43C162.273 223.747 162.128 223.237 161.836 222.898C161.544 222.555 161.091 222.383 160.477 222.383C159.669 222.383 159.073 222.615 158.688 223.078C158.302 223.542 158.109 224.255 158.109 225.219V230H156.812V224.43C156.812 223.747 156.667 223.237 156.375 222.898C156.083 222.555 155.628 222.383 155.008 222.383C154.195 222.383 153.599 222.628 153.219 223.117C152.844 223.602 152.656 224.398 152.656 225.508V230H151.359V221.438H152.414L152.625 222.609H152.688C152.932 222.193 153.276 221.867 153.719 221.633C154.167 221.398 154.667 221.281 155.219 221.281C156.557 221.281 157.432 221.766 157.844 222.734H157.906C158.161 222.286 158.531 221.932 159.016 221.672C159.5 221.411 160.052 221.281 160.672 221.281C161.641 221.281 162.365 221.531 162.844 222.031C163.328 222.526 163.57 223.32 163.57 224.414V230H162.273ZM171.703 230H170.406V221.438H171.703V230ZM170.297 219.117C170.297 218.82 170.37 218.604 170.516 218.469C170.661 218.328 170.844 218.258 171.062 218.258C171.271 218.258 171.451 218.328 171.602 218.469C171.753 218.609 171.828 218.826 171.828 219.117C171.828 219.409 171.753 219.628 171.602 219.773C171.451 219.914 171.271 219.984 171.062 219.984C170.844 219.984 170.661 219.914 170.516 219.773C170.37 219.628 170.297 219.409 170.297 219.117ZM178.438 230.156C177.88 230.156 177.37 230.055 176.906 229.852C176.448 229.643 176.062 229.326 175.75 228.898H175.656C175.719 229.398 175.75 229.872 175.75 230.32V233.844H174.453V221.438H175.508L175.688 222.609H175.75C176.083 222.141 176.471 221.802 176.914 221.594C177.357 221.385 177.865 221.281 178.438 221.281C179.573 221.281 180.448 221.669 181.062 222.445C181.682 223.221 181.992 224.31 181.992 225.711C181.992 227.117 181.677 228.211 181.047 228.992C180.422 229.768 179.552 230.156 178.438 230.156ZM178.25 222.383C177.375 222.383 176.742 222.625 176.352 223.109C175.961 223.594 175.76 224.365 175.75 225.422V225.711C175.75 226.914 175.951 227.776 176.352 228.297C176.753 228.812 177.396 229.07 178.281 229.07C179.021 229.07 179.599 228.771 180.016 228.172C180.438 227.573 180.648 226.747 180.648 225.695C180.648 224.628 180.438 223.81 180.016 223.242C179.599 222.669 179.01 222.383 178.25 222.383ZM189.789 227.664C189.789 228.461 189.492 229.076 188.898 229.508C188.305 229.94 187.471 230.156 186.398 230.156C185.263 230.156 184.378 229.977 183.742 229.617V228.414C184.154 228.622 184.594 228.786 185.062 228.906C185.536 229.026 185.992 229.086 186.43 229.086C187.107 229.086 187.628 228.979 187.992 228.766C188.357 228.547 188.539 228.216 188.539 227.773C188.539 227.44 188.393 227.156 188.102 226.922C187.815 226.682 187.253 226.401 186.414 226.078C185.617 225.781 185.049 225.523 184.711 225.305C184.378 225.081 184.128 224.828 183.961 224.547C183.799 224.266 183.719 223.93 183.719 223.539C183.719 222.841 184.003 222.292 184.57 221.891C185.138 221.484 185.917 221.281 186.906 221.281C187.828 221.281 188.729 221.469 189.609 221.844L189.148 222.898C188.289 222.544 187.51 222.367 186.812 222.367C186.198 222.367 185.734 222.464 185.422 222.656C185.109 222.849 184.953 223.115 184.953 223.453C184.953 223.682 185.01 223.878 185.125 224.039C185.245 224.201 185.435 224.354 185.695 224.5C185.956 224.646 186.456 224.857 187.195 225.133C188.211 225.503 188.896 225.875 189.25 226.25C189.609 226.625 189.789 227.096 189.789 227.664ZM193.125 221.438V226.992C193.125 227.69 193.284 228.211 193.602 228.555C193.919 228.898 194.417 229.07 195.094 229.07C195.99 229.07 196.643 228.826 197.055 228.336C197.471 227.846 197.68 227.047 197.68 225.938V221.438H198.977V230H197.906L197.719 228.852H197.648C197.383 229.273 197.013 229.596 196.539 229.82C196.07 230.044 195.534 230.156 194.93 230.156C193.888 230.156 193.107 229.909 192.586 229.414C192.07 228.919 191.812 228.128 191.812 227.039V221.438H193.125ZM212.648 230V224.43C212.648 223.747 212.503 223.237 212.211 222.898C211.919 222.555 211.466 222.383 210.852 222.383C210.044 222.383 209.448 222.615 209.062 223.078C208.677 223.542 208.484 224.255 208.484 225.219V230H207.188V224.43C207.188 223.747 207.042 223.237 206.75 222.898C206.458 222.555 206.003 222.383 205.383 222.383C204.57 222.383 203.974 222.628 203.594 223.117C203.219 223.602 203.031 224.398 203.031 225.508V230H201.734V221.438H202.789L203 222.609H203.062C203.307 222.193 203.651 221.867 204.094 221.633C204.542 221.398 205.042 221.281 205.594 221.281C206.932 221.281 207.807 221.766 208.219 222.734H208.281C208.536 222.286 208.906 221.932 209.391 221.672C209.875 221.411 210.427 221.281 211.047 221.281C212.016 221.281 212.74 221.531 213.219 222.031C213.703 222.526 213.945 223.32 213.945 224.414V230H212.648Z" fill="black"/>
</g>
<defs>
<filter id="filter0_d_13_322" x="0" y="0" width="336" height="276" filterUnits="userSpaceOnUse" color-interpolation-filters="sRGB">
<feFlood flood-opacity="0" result="BackgroundImageFix"/>
<feColorMatrix in="SourceAlpha" type="matrix" values="0 0 0 0 0 0 0 0 0 0 0 0 0 0 0 0 0 0 127 0" result="hardAlpha"/>
<feOffset dy="8"/>
<feGaussianBlur stdDeviation="4"/>
<feColorMatrix type="matrix" values="0 0 0 0 0 0 0 0 0 0 0 0 0 0 0 0 0 0 0.1 0"/>
<feBlend mode="normal" in2="BackgroundImageFix" result="effect1_dropShadow_13_322"/>
<feBlend mode="normal" in="SourceGraphic" in2="effect1_dropShadow_13_322" result="shape"/>
</filter>
<clipPath id="clip0_13_322">
<rect width="222.126" height="130" fill="white" transform="translate(56.9369 24)"/>
</clipPath>
</defs>
</svg>
